<?xml version="1.0" encoding="UTF-8" standalone="no"?>
<svg
   id="visual"
   viewBox="0 0 932.7439 434.81564"
   width="932.7439"
   height="434.81564"
   version="1.1"
   preserveAspectRatio="none"
   sodipodi:docname="layeredwaves.svg"
   inkscape:version="1.1 (c68e22c387, 2021-05-23)"
   xmlns:inkscape="http://www.inkscape.org/namespaces/inkscape"
   xmlns:sodipodi="http://sodipodi.sourceforge.net/DTD/sodipodi-0.dtd"
   xmlns="http://www.w3.org/2000/svg"
   xmlns:svg="http://www.w3.org/2000/svg">
  <defs
     id="defs918" />
  <sodipodi:namedview
     id="namedview916"
     pagecolor="#ffffff"
     bordercolor="#666666"
     borderopacity="1.0"
     inkscape:pageshadow="2"
     inkscape:pageopacity="0.0"
     inkscape:pagecheckerboard="0"
     showgrid="false"
     fit-margin-top="0"
     fit-margin-left="0"
     fit-margin-right="0"
     fit-margin-bottom="0"
     inkscape:zoom="0.41666667"
     inkscape:cx="189.6"
     inkscape:cy="138"
     inkscape:window-width="1528"
     inkscape:window-height="836"
     inkscape:window-x="72"
     inkscape:window-y="27"
     inkscape:window-maximized="1"
     inkscape:current-layer="visual" />
  <path
     d="m -69.876569,197.1145 27.383947,3.59127 c 27.41453,3.69274 82.182424,10.87528 133.327303,6.84855 51.259019,-4.05392 98.780879,-19.28992 145.941749,-36.94139 47.07731,-17.52281 93.71006,-37.33244 142.16362,-50.28891 48.53711,-13.08513 98.81146,-19.18844 147.4709,-31.867672 C 574.95626,75.804304 621.77251,56.603524 669.09449,39.892507 716.5306,23.154301 764.3583,8.9330474 814.39398,0.82015639 864.31553,-7.2655447 916.33094,-9.2156934 942.36922,-10.089293 l 26.0077,-0.975075 63.91898,212.081288 -24.5397,5.84584 c -24.53974,5.84584 -73.61915,17.53752 -122.47029,29.17482 -48.96527,11.6645 -97.58813,23.24742 -146.55341,34.91191 -48.85114,11.6373 -97.93055,23.32898 -146.78169,34.96628 -48.96527,11.66449 -97.58813,23.24742 -146.55341,34.91191 -48.85113,11.6373 -97.93055,23.32898 -146.78168,34.96628 -48.96528,11.66449 -97.58814,23.24742 -146.55341,34.91191 -48.85114,11.6373 -97.930553,23.32898 -122.470259,29.17482 l -24.5397067,5.84584 z"
     fill="#0db81d"
     id="path905"
     style="stroke-width:1.11417" />
  <path
     d="m -54.584954,247.85165 25.243121,-3.51193 c 25.2737037,-3.41046 75.759945,-10.43433 126.10966,-17.09939 50.433273,-6.79372 100.585293,-13.30293 150.376313,-22.22761 49.6463,-8.99897 98.84805,-20.28476 149.16718,-27.05129 50.43327,-6.79373 101.93095,-8.83807 149.97873,-23.54679 47.93364,-14.68153 92.30324,-42.00025 141.76604,-51.60807 49.57694,-9.635002 104.13295,-1.53191 152.67006,-14.617041 C 889.1797,75.233061 931.5308,41.217034 952.70635,24.20902 l 21.17555,-17.0080138 58.414,193.8159138 -24.5397,5.84584 c -24.53974,5.84584 -73.61915,17.53752 -122.47029,29.17482 -48.96527,11.6645 -97.58813,23.24742 -146.55341,34.91191 -48.85114,11.6373 -97.93055,23.32898 -146.78169,34.96628 -48.96527,11.66449 -97.58813,23.24742 -146.55341,34.91191 -48.85113,11.6373 -97.93055,23.32898 -146.78168,34.96628 -48.96528,11.66449 -97.58814,23.24742 -146.55341,34.91191 -48.85114,11.6373 -97.930553,23.32898 -122.470259,29.17482 l -24.5397067,5.84584 z"
     fill="#08921d"
     id="path907"
     style="stroke-width:1.11417" />
  <path
     d="m -42.657495,287.42662 26.894616,1.96768 c 26.864032,1.86621 80.653262,5.80157 131.033559,-0.76202 50.49444,-6.59077 97.4658,-23.65331 146.49225,-35.11485 48.9123,-11.43435 99.70437,-17.44347 147.33218,-33.13975 47.74195,-15.72346 92.20549,-41.10689 139.12169,-59.57016 46.80206,-18.43608 96.0038,-29.72186 147.76035,-31.7191 51.87068,-2.02444 106.18202,5.26686 156.82937,-0.81654 50.53322,-6.05622 97.2883,-25.45995 120.63526,-35.263285 l 23.37755,-9.701864 35.47657,117.710189 -24.5397,5.84584 c -24.53974,5.84584 -73.61915,17.53752 -122.47029,29.17482 -48.96527,11.6645 -97.58813,23.24742 -146.55341,34.91191 -48.85114,11.6373 -97.93055,23.32898 -146.78169,34.96628 -48.96527,11.66449 -97.58813,23.24742 -146.55341,34.91191 -48.85113,11.6373 -97.93055,23.32898 -146.78168,34.96628 -48.96528,11.66449 -97.58814,23.24742 -146.55341,34.91191 -48.85114,11.6373 -97.930553,23.32898 -122.470259,29.17482 l -24.5397067,5.84584 z"
     fill="#096e1a"
     id="path909"
     style="stroke-width:1.11417" />
  <path
     d="m -17.579246,370.63555 23.53046,-9.19449 c 23.499877,-9.29597 70.560797,-27.68495 118.341516,-42.87386 47.89487,-15.21609 96.39539,-27.20491 145.78883,-37.44876 49.24872,-10.31813 99.24563,-18.96559 148.86135,-28.06603 49.72986,-9.12764 98.96438,-18.68107 149.09182,-26.48954 50.04388,-7.6798 100.83596,-13.68892 147.69918,-31.92206 46.97737,-18.26032 89.91175,-48.71746 138.29594,-62.30996 48.30064,-13.46384 101.96754,-9.93438 128.80099,-8.16964 l 26.83346,1.76473 22.6316,75.09098 -24.5397,5.84584 c -24.53974,5.84584 -73.61915,17.53752 -122.47029,29.17482 -48.96527,11.6645 -97.58813,23.24742 -146.55341,34.91191 -48.85114,11.6373 -97.93055,23.32898 -146.78169,34.96628 -48.96527,11.66449 -97.58813,23.24742 -146.55341,34.91191 -48.85113,11.6373 -97.93055,23.32898 -146.78168,34.96628 -48.96528,11.66449 -97.58814,23.24742 -146.55341,34.91191 -48.85114,11.6373 -97.930553,23.32898 -122.470259,29.17482 l -24.5397067,5.84584 z"
     fill="#0b4b15"
     id="path911"
     style="stroke-width:1.11417" />
  <path
     d="m -16.661749,373.67978 26.5276165,0.74999 c 26.5276165,0.74999 79.5828495,2.24996 130.0243125,-4.11067 50.52502,-6.48931 98.35272,-20.71056 145.78883,-37.44877 47.32198,-16.71101 94.13823,-35.91179 142.04129,-50.6948 47.98661,-14.91167 96.9153,-25.47985 146.55341,-34.9119 49.49338,-9.50634 99.61262,-17.7479 148.0356,-30.80584 48.56769,-12.98366 95.35556,-30.65504 144.99366,-40.08709 49.49339,-9.50635 101.75346,-10.6447 127.85291,-11.31535 l 26.13002,-0.56918 11.01,36.53075 43.924,48.25585 c 16.9808,18.65545 -24.8606,82.32331 -73.7118,93.96061 -48.96524,11.6645 -46.97902,151.30594 -96.39757,160.86972 l -142.8565,27.64646 C 713.83549,541.31333 560.8764,575.65201 511.91112,587.3165 463.05999,598.9538 403.08653,531.62009 354.2354,543.25739 305.27012,554.92188 253.61785,611.93309 203.38458,615.13873 L 29.592051,626.22932 -121.26369,510.96569 Z"
     fill="#0a2b0d"
     id="path913"
     style="stroke-width:1.11417"
     sodipodi:nodetypes="cscccccccccsssssssccc" />
</svg>
