<?xml version="1.0" encoding="UTF-8" standalone="no"?>
<svg
   id="visual"
   viewBox="0 0 923.68524 431.3092"
   width="923.68524"
   height="431.3092"
   version="1.1"
   preserveAspectRatio="none"
   sodipodi:docname="layeredwaves2.svg"
   inkscape:version="1.1 (c68e22c387, 2021-05-23)"
   xmlns:inkscape="http://www.inkscape.org/namespaces/inkscape"
   xmlns:sodipodi="http://sodipodi.sourceforge.net/DTD/sodipodi-0.dtd"
   xmlns="http://www.w3.org/2000/svg"
   xmlns:svg="http://www.w3.org/2000/svg">
  <defs
     id="defs1467" />
  <sodipodi:namedview
     id="namedview1465"
     pagecolor="#ffffff"
     bordercolor="#666666"
     borderopacity="1.0"
     inkscape:pageshadow="2"
     inkscape:pageopacity="0.0"
     inkscape:pagecheckerboard="0"
     showgrid="false"
     fit-margin-top="0"
     fit-margin-left="0"
     fit-margin-right="0"
     fit-margin-bottom="0"
     inkscape:zoom="0.55333333"
     inkscape:cx="309.03615"
     inkscape:cy="75"
     inkscape:window-width="1528"
     inkscape:window-height="836"
     inkscape:window-x="72"
     inkscape:window-y="27"
     inkscape:window-maximized="1"
     inkscape:current-layer="visual" />
  <path
     d="m 994.6402,202.84443 -22.54478,9.42831 c -22.54479,9.42831 -67.63438,28.28494 -113.00597,45.44773 -45.45235,17.28526 -91.10593,32.75421 -137.65241,46.46555 -46.43615,13.68545 -93.71401,25.39423 -142.60454,31.0625 -49.03047,5.59756 -99.59285,5.03214 -147.32221,14.87977 -47.64855,9.72516 -92.32414,29.93408 -138.22799,45.3582 -46.01422,15.45001 -93.14635,26.08933 -142.2951,31.30052 -49.06798,5.08871 -100.0718,4.62682 -125.573711,4.39587 l -25.50191151,-0.23094 -60.62090349,-198.0148 23.72764,-5.5646 c 23.727641,-5.56461 71.182922,-16.69383 118.417485,-27.77129 47.344931,-11.10334 94.358751,-22.12903 141.703671,-33.23236 47.23457,-11.07746 94.68984,-22.20668 141.92439,-33.28413 47.34493,-11.10334 94.35876,-22.12903 141.70369,-33.232368 C 554.00211,88.774937 601.45739,77.645718 648.69194,66.568263 696.03687,55.464926 743.0507,44.439234 790.39563,33.335897 837.63018,22.258442 885.08546,11.12922 908.81311,5.56461 L 932.54075,0 Z"
     fill="#0db81d"
     id="path1454"
     style="stroke-width:1.06889" />
  <path
     d="m 990.79596,190.28739 -25.11749,1.02476 c -25.08791,1.12135 -75.32288,3.17087 -123.76985,10.28803 -48.58692,7.04645 -95.30504,19.03806 -143.00482,28.98229 -47.55984,10.01493 -96.02055,17.86001 -143.93524,26.71583 -48.02506,8.88171 -95.45288,18.5551 -141.99939,32.26644 -46.43613,13.68546 -91.93972,31.18979 -138.021,46.03435 -46.22122,14.77386 -92.93935,26.76547 -138.95356,42.21548 -45.903858,15.42412 -90.993446,34.28074 -113.538239,43.70906 l -22.54479351,9.42831 -60.62090349,-198.0148 23.72764,-5.5646 c 23.727641,-5.56461 71.182922,-16.69383 118.417485,-27.77129 47.344931,-11.10334 94.358751,-22.12903 141.703671,-33.23236 47.23457,-11.07746 94.68984,-22.20668 141.92439,-33.28413 47.34493,-11.10334 94.35876,-22.12903 141.70369,-33.232368 C 554.00211,88.774937 601.45739,77.645718 648.69194,66.568263 696.03687,55.464926 743.0507,44.439234 790.39563,33.335897 837.63018,22.258442 885.08546,11.12922 908.81311,5.56461 L 932.54075,0 Z"
     fill="#08921d"
     id="path1456"
     style="stroke-width:1.06889" />
  <path
     d="m 977.78464,147.78666 -25.64977,-0.71391 c -25.64976,-0.71391 -76.9493,-2.14173 -124.98227,6.32773 -48.11377,8.59193 -92.8802,26.95865 -138.15514,44.82347 -45.16458,17.83894 -90.7273,35.15008 -137.37044,48.15939 -46.75349,13.03519 -94.47704,21.74266 -141.70369,33.23237 -47.14584,11.36723 -93.71398,25.39422 -140.71197,37.24442 -47.07877,11.97267 -94.50661,21.64607 -143.71451,26.66407 -49.097549,4.99212 -99.923946,5.10979 -125.30757184,5.26521 l -25.41319816,0.0588 -35.485406,-115.9111 23.72764,-5.5646 c 23.727641,-5.56458 71.182922,-16.6938 118.417485,-27.77126 47.344931,-11.10334 94.358751,-22.12903 141.703671,-33.23236 47.23457,-11.07746 94.68984,-22.20668 141.92439,-33.28413 47.34493,-11.10334 94.35876,-22.12903 141.70369,-33.232368 C 554.00211,88.774937 601.45739,77.645718 648.69194,66.568263 696.03687,55.464926 743.0507,44.439234 790.39563,33.335897 837.63018,22.258442 885.08546,11.12922 908.81311,5.56461 L 932.54075,0 Z"
     fill="#096e1a"
     id="path1458"
     style="stroke-width:1.06889" />
  <path
     d="m 965.95617,109.14962 -25.64976,-0.71391 c -25.64977,-0.7139 -76.94931,-2.14172 -125.13014,5.84477 -48.26162,8.10897 -93.32377,25.50977 -139.6337,39.99385 -46.19957,14.45819 -93.53656,25.97378 -139.94313,39.75583 -46.51693,13.80793 -91.93391,30.04962 -138.53955,43.56777 -46.49529,13.49227 -94.06885,24.23512 -142.87069,30.19317 -48.91219,5.98393 -99.00142,6.96399 -148.06147,12.46496 -48.949694,5.47508 -96.8189702,15.25201 -120.724038,20.23706 l -23.93464,4.88846 -22.178378,-72.44444 23.72764,-5.5646 c 23.727641,-5.56461 71.182922,-16.69383 118.417485,-27.77129 47.344931,-11.10334 94.358751,-22.12903 141.703671,-33.23236 47.23457,-11.07746 94.68984,-22.20668 141.92439,-33.28413 47.34493,-11.10334 94.35876,-22.12903 141.70369,-33.232368 C 554.00211,88.774937 601.45739,77.645718 648.69194,66.568263 696.03687,55.464926 743.0507,44.439234 790.39563,33.335897 837.63018,22.258442 885.08546,11.12922 908.81311,5.56461 L 932.54075,0 Z"
     fill="#0b4b15"
     id="path1460"
     style="stroke-width:1.06889" />
  <path
     d="m 950.28345,57.955554 -23.28407,7.013498 c -23.28408,7.013498 -69.85222,21.040495 -118.18092,28.544024 -48.40947,7.626004 -98.49871,8.606064 -145.84363,19.709404 -47.23456,11.07746 -91.61445,32.2523 -138.99686,42.84679 -47.49277,10.62038 -97.87773,10.63452 -145.69578,20.19237 -47.73727,9.43538 -92.82686,28.29201 -139.82485,40.1422 -47.07878,11.97267 -95.98517,16.81644 -144.158078,25.21519 -48.062559,8.37286 -95.3404129,20.08163 -118.949769,26.03261 l -23.638927,5.85439 -61.857206,-291.941484 89.452461,-32.520372 c 22.9047363,-8.326999 60.486971,6.604852 107.721534,-4.472608 47.344935,-11.10334 93.273905,-3.971035 140.618825,-15.074365 47.23457,-11.07746 116.72515,-39.254741 163.9597,-50.332191 47.34493,-11.10334 69.06362,53.280756 116.40855,42.177418 47.23456,-11.077455 114.46612,19.631988 161.70067,8.554533 47.34493,-11.103337 78.75729,-3.159136 126.10222,-14.262473 47.23455,-11.077455 154.02721,-14.514993 149.82613,9.491613 l 18.3535,55.412269 z"
     fill="#0a2b0d"
     id="path1462"
     style="stroke-width:1.06889"
     sodipodi:nodetypes="cscscccccccsssssssscc" />
</svg>
