<svg id="visual" viewBox="0 0 960 540" width="960" height="540" xmlns="http://www.w3.org/2000/svg" xmlns:xlink="http://www.w3.org/1999/xlink" version="1.1"><g stroke-width="1" stroke-linejoin="bevel"><path d="M476 260L471 234L435 257Z" fill="#06380b" stroke="#06380b"></path><path d="M471 234L435 216L435 257Z" fill="#05450b" stroke="#05450b"></path><path d="M381 227L391 273L435 257Z" fill="#021a00" stroke="#021a00"></path><path d="M435 257L425 319L476 260Z" fill="#054c0b" stroke="#054c0b"></path><path d="M476 260L529 236L471 234Z" fill="#053e0b" stroke="#053e0b"></path><path d="M475 169L442 173L435 216Z" fill="#072b08" stroke="#072b08"></path><path d="M391 273L425 319L435 257Z" fill="#082506" stroke="#082506"></path><path d="M476 260L532 257L529 236Z" fill="#04520a" stroke="#04520a"></path><path d="M528 320L532 257L476 260Z" fill="#053e0b" stroke="#053e0b"></path><path d="M475 169L435 216L471 234Z" fill="#082506" stroke="#082506"></path><path d="M435 216L381 227L435 257Z" fill="#05450b" stroke="#05450b"></path><path d="M393 175L381 227L435 216Z" fill="#082506" stroke="#082506"></path><path d="M425 319L486 326L476 260Z" fill="#072b08" stroke="#072b08"></path><path d="M516 172L475 169L471 234Z" fill="#06380b" stroke="#06380b"></path><path d="M326 302L388 308L391 273Z" fill="#07320a" stroke="#07320a"></path><path d="M391 273L388 308L425 319Z" fill="#045909" stroke="#045909"></path><path d="M422 146L393 175L442 173Z" fill="#05450b" stroke="#05450b"></path><path d="M442 173L393 175L435 216Z" fill="#054c0b" stroke="#054c0b"></path><path d="M529 236L516 172L471 234Z" fill="#07320a" stroke="#07320a"></path><path d="M486 326L528 320L476 260Z" fill="#054c0b" stroke="#054c0b"></path><path d="M426 357L468 356L425 319Z" fill="#082506" stroke="#082506"></path><path d="M425 319L468 356L486 326Z" fill="#021a00" stroke="#021a00"></path><path d="M486 326L535 350L528 320Z" fill="#072b08" stroke="#072b08"></path><path d="M476 128L442 173L475 169Z" fill="#05450b" stroke="#05450b"></path><path d="M476 128L422 146L442 173Z" fill="#05450b" stroke="#05450b"></path><path d="M327 176L347 231L381 227Z" fill="#04520a" stroke="#04520a"></path><path d="M381 227L347 231L391 273Z" fill="#021a00" stroke="#021a00"></path><path d="M380 364L426 357L425 319Z" fill="#021a00" stroke="#021a00"></path><path d="M532 257L567 228L529 236Z" fill="#053e0b" stroke="#053e0b"></path><path d="M529 236L567 228L516 172Z" fill="#06380b" stroke="#06380b"></path><path d="M579 270L567 228L532 257Z" fill="#061f03" stroke="#061f03"></path><path d="M523 125L476 128L516 172Z" fill="#045909" stroke="#045909"></path><path d="M516 172L476 128L475 169Z" fill="#053e0b" stroke="#053e0b"></path><path d="M528 320L579 270L532 257Z" fill="#021a00" stroke="#021a00"></path><path d="M468 356L535 350L486 326Z" fill="#061f03" stroke="#061f03"></path><path d="M528 320L586 317L579 270Z" fill="#061f03" stroke="#061f03"></path><path d="M347 231L326 262L391 273Z" fill="#07320a" stroke="#07320a"></path><path d="M388 308L380 364L425 319Z" fill="#054c0b" stroke="#054c0b"></path><path d="M345 362L380 364L388 308Z" fill="#04520a" stroke="#04520a"></path><path d="M426 357L436 394L468 356Z" fill="#072b08" stroke="#072b08"></path><path d="M468 356L515 394L535 350Z" fill="#054c0b" stroke="#054c0b"></path><path d="M326 262L326 302L391 273Z" fill="#045909" stroke="#045909"></path><path d="M422 146L379 132L393 175Z" fill="#04520a" stroke="#04520a"></path><path d="M393 175L327 176L381 227Z" fill="#053e0b" stroke="#053e0b"></path><path d="M347 231L294 224L326 262Z" fill="#021a00" stroke="#021a00"></path><path d="M426 94L379 132L422 146Z" fill="#06380b" stroke="#06380b"></path><path d="M566 146L523 125L516 172Z" fill="#06380b" stroke="#06380b"></path><path d="M476 128L426 94L422 146Z" fill="#082506" stroke="#082506"></path><path d="M612 215L582 180L567 228Z" fill="#082506" stroke="#082506"></path><path d="M567 228L582 180L516 172Z" fill="#04520a" stroke="#04520a"></path><path d="M388 396L436 394L426 357Z" fill="#061f03" stroke="#061f03"></path><path d="M535 350L586 317L528 320Z" fill="#045909" stroke="#045909"></path><path d="M579 270L611 261L567 228Z" fill="#021a00" stroke="#021a00"></path><path d="M379 132L327 176L393 175Z" fill="#05450b" stroke="#05450b"></path><path d="M582 180L566 146L516 172Z" fill="#054c0b" stroke="#054c0b"></path><path d="M492 408L515 394L468 356Z" fill="#021a00" stroke="#021a00"></path><path d="M535 350L570 362L586 317Z" fill="#072b08" stroke="#072b08"></path><path d="M586 317L611 261L579 270Z" fill="#04520a" stroke="#04520a"></path><path d="M326 302L345 362L388 308Z" fill="#05450b" stroke="#05450b"></path><path d="M380 364L388 396L426 357Z" fill="#07320a" stroke="#07320a"></path><path d="M489 90L426 94L476 128Z" fill="#053e0b" stroke="#053e0b"></path><path d="M515 394L570 362L535 350Z" fill="#054c0b" stroke="#054c0b"></path><path d="M586 317L618 318L611 261Z" fill="#021a00" stroke="#021a00"></path><path d="M611 261L612 215L567 228Z" fill="#082506" stroke="#082506"></path><path d="M582 180L611 171L566 146Z" fill="#021a00" stroke="#021a00"></path><path d="M345 362L388 396L380 364Z" fill="#06380b" stroke="#06380b"></path><path d="M436 394L492 408L468 356Z" fill="#04520a" stroke="#04520a"></path><path d="M486 441L492 408L436 394Z" fill="#021a00" stroke="#021a00"></path><path d="M586 408L616 371L570 362Z" fill="#045909" stroke="#045909"></path><path d="M294 224L296 279L326 262Z" fill="#053e0b" stroke="#053e0b"></path><path d="M326 262L296 279L326 302Z" fill="#04520a" stroke="#04520a"></path><path d="M326 302L281 350L345 362Z" fill="#061f03" stroke="#061f03"></path><path d="M525 84L489 90L523 125Z" fill="#021a00" stroke="#021a00"></path><path d="M523 125L489 90L476 128Z" fill="#04520a" stroke="#04520a"></path><path d="M327 176L294 224L347 231Z" fill="#045909" stroke="#045909"></path><path d="M426 94L385 95L379 132Z" fill="#06380b" stroke="#06380b"></path><path d="M379 132L330 125L327 176Z" fill="#07320a" stroke="#07320a"></path><path d="M347 94L385 95L382 41Z" fill="#07320a" stroke="#07320a"></path><path d="M612 215L611 171L582 180Z" fill="#05450b" stroke="#05450b"></path><path d="M566 99L525 84L523 125Z" fill="#072b08" stroke="#072b08"></path><path d="M616 371L618 318L586 317Z" fill="#072b08" stroke="#072b08"></path><path d="M611 261L661 237L612 215Z" fill="#072b08" stroke="#072b08"></path><path d="M659 191L613 140L611 171Z" fill="#045909" stroke="#045909"></path><path d="M238 317L290 310L296 279Z" fill="#054c0b" stroke="#054c0b"></path><path d="M296 279L290 310L326 302Z" fill="#07320a" stroke="#07320a"></path><path d="M347 94L330 125L379 132Z" fill="#04520a" stroke="#04520a"></path><path d="M327 176L297 170L294 224Z" fill="#05450b" stroke="#05450b"></path><path d="M330 125L297 170L327 176Z" fill="#072b08" stroke="#072b08"></path><path d="M566 99L523 125L566 146Z" fill="#054c0b" stroke="#054c0b"></path><path d="M489 90L444 56L426 94Z" fill="#054c0b" stroke="#054c0b"></path><path d="M613 140L566 99L566 146Z" fill="#053e0b" stroke="#053e0b"></path><path d="M385 95L347 94L379 132Z" fill="#053e0b" stroke="#053e0b"></path><path d="M330 125L280 138L297 170Z" fill="#082506" stroke="#082506"></path><path d="M382 41L385 95L426 94Z" fill="#082506" stroke="#082506"></path><path d="M611 171L613 140L566 146Z" fill="#06380b" stroke="#06380b"></path><path d="M659 191L611 171L612 215Z" fill="#04520a" stroke="#04520a"></path><path d="M382 462L430 441L388 396Z" fill="#054c0b" stroke="#054c0b"></path><path d="M388 396L430 441L436 394Z" fill="#072b08" stroke="#072b08"></path><path d="M430 441L486 441L436 394Z" fill="#04520a" stroke="#04520a"></path><path d="M492 408L532 437L515 394Z" fill="#082506" stroke="#082506"></path><path d="M570 362L616 371L586 317Z" fill="#054c0b" stroke="#054c0b"></path><path d="M472 54L444 56L489 90Z" fill="#072b08" stroke="#072b08"></path><path d="M525 84L472 54L489 90Z" fill="#05450b" stroke="#05450b"></path><path d="M534 44L472 54L525 84Z" fill="#04520a" stroke="#04520a"></path><path d="M586 408L570 362L515 394Z" fill="#072b08" stroke="#072b08"></path><path d="M238 317L281 350L290 310Z" fill="#054c0b" stroke="#054c0b"></path><path d="M290 310L281 350L326 302Z" fill="#04520a" stroke="#04520a"></path><path d="M345 362L336 417L388 396Z" fill="#045909" stroke="#045909"></path><path d="M244 234L296 279L294 224Z" fill="#021a00" stroke="#021a00"></path><path d="M486 441L532 437L492 408Z" fill="#054c0b" stroke="#054c0b"></path><path d="M532 437L586 408L515 394Z" fill="#061f03" stroke="#061f03"></path><path d="M680 267L611 261L618 318Z" fill="#045909" stroke="#045909"></path><path d="M680 267L661 237L611 261Z" fill="#021a00" stroke="#021a00"></path><path d="M294 409L336 417L345 362Z" fill="#07320a" stroke="#07320a"></path><path d="M288 91L280 138L330 125Z" fill="#061f03" stroke="#061f03"></path><path d="M252 185L244 234L294 224Z" fill="#045909" stroke="#045909"></path><path d="M661 237L659 191L612 215Z" fill="#05450b" stroke="#05450b"></path><path d="M252 185L294 224L297 170Z" fill="#061f03" stroke="#061f03"></path><path d="M280 138L252 185L297 170Z" fill="#021a00" stroke="#021a00"></path><path d="M587 44L534 44L566 99Z" fill="#07320a" stroke="#07320a"></path><path d="M566 99L534 44L525 84Z" fill="#07320a" stroke="#07320a"></path><path d="M422 0L382 41L444 56Z" fill="#021a00" stroke="#021a00"></path><path d="M612 90L566 99L613 140Z" fill="#054c0b" stroke="#054c0b"></path><path d="M471 0L444 56L472 54Z" fill="#04520a" stroke="#04520a"></path><path d="M444 56L382 41L426 94Z" fill="#06380b" stroke="#06380b"></path><path d="M347 94L288 91L330 125Z" fill="#045909" stroke="#045909"></path><path d="M181 257L233 258L180 222Z" fill="#05450b" stroke="#05450b"></path><path d="M244 234L233 258L296 279Z" fill="#045909" stroke="#045909"></path><path d="M660 123L612 90L613 140Z" fill="#082506" stroke="#082506"></path><path d="M336 417L382 462L388 396Z" fill="#053e0b" stroke="#053e0b"></path><path d="M426 503L492 502L486 441Z" fill="#061f03" stroke="#061f03"></path><path d="M565 487L569 455L532 437Z" fill="#021a00" stroke="#021a00"></path><path d="M684 317L680 267L618 318Z" fill="#061f03" stroke="#061f03"></path><path d="M661 237L715 185L659 191Z" fill="#06380b" stroke="#06380b"></path><path d="M281 350L294 409L345 362Z" fill="#053e0b" stroke="#053e0b"></path><path d="M336 417L323 455L382 462Z" fill="#07320a" stroke="#07320a"></path><path d="M235 364L294 409L281 350Z" fill="#06380b" stroke="#06380b"></path><path d="M233 258L238 317L296 279Z" fill="#06380b" stroke="#06380b"></path><path d="M339 36L288 91L347 94Z" fill="#061f03" stroke="#061f03"></path><path d="M280 138L250 124L252 185Z" fill="#082506" stroke="#082506"></path><path d="M516 499L532 437L486 441Z" fill="#054c0b" stroke="#054c0b"></path><path d="M532 437L569 455L586 408Z" fill="#05450b" stroke="#05450b"></path><path d="M586 408L624 415L616 371Z" fill="#07320a" stroke="#07320a"></path><path d="M679 357L684 317L618 318Z" fill="#082506" stroke="#082506"></path><path d="M625 456L624 415L586 408Z" fill="#06380b" stroke="#06380b"></path><path d="M679 357L618 318L616 371Z" fill="#072b08" stroke="#072b08"></path><path d="M659 191L660 123L613 140Z" fill="#04520a" stroke="#04520a"></path><path d="M712 144L660 123L659 191Z" fill="#061f03" stroke="#061f03"></path><path d="M288 91L250 124L280 138Z" fill="#053e0b" stroke="#053e0b"></path><path d="M252 185L199 175L244 234Z" fill="#07320a" stroke="#07320a"></path><path d="M294 409L323 455L336 417Z" fill="#053e0b" stroke="#053e0b"></path><path d="M382 41L339 36L347 94Z" fill="#04520a" stroke="#04520a"></path><path d="M288 91L228 92L250 124Z" fill="#04520a" stroke="#04520a"></path><path d="M384 0L339 36L382 41Z" fill="#082506" stroke="#082506"></path><path d="M612 90L587 44L566 99Z" fill="#04520a" stroke="#04520a"></path><path d="M534 44L471 0L472 54Z" fill="#054c0b" stroke="#054c0b"></path><path d="M613 54L587 44L612 90Z" fill="#05450b" stroke="#05450b"></path><path d="M663 417L679 357L616 371Z" fill="#06380b" stroke="#06380b"></path><path d="M192 358L235 364L238 317Z" fill="#082506" stroke="#082506"></path><path d="M238 317L235 364L281 350Z" fill="#053e0b" stroke="#053e0b"></path><path d="M294 409L300 459L323 455Z" fill="#04520a" stroke="#04520a"></path><path d="M328 496L380 489L382 462Z" fill="#072b08" stroke="#072b08"></path><path d="M382 462L426 503L430 441Z" fill="#072b08" stroke="#072b08"></path><path d="M535 0L471 0L534 44Z" fill="#072b08" stroke="#072b08"></path><path d="M678 53L613 54L612 90Z" fill="#054c0b" stroke="#054c0b"></path><path d="M471 0L422 0L444 56Z" fill="#021a00" stroke="#021a00"></path><path d="M426 503L486 441L430 441Z" fill="#07320a" stroke="#07320a"></path><path d="M380 489L426 503L382 462Z" fill="#021a00" stroke="#021a00"></path><path d="M492 502L516 499L486 441Z" fill="#082506" stroke="#082506"></path><path d="M569 455L625 456L586 408Z" fill="#021a00" stroke="#021a00"></path><path d="M516 499L565 487L532 437Z" fill="#05450b" stroke="#05450b"></path><path d="M624 415L663 417L616 371Z" fill="#04520a" stroke="#04520a"></path><path d="M422 0L384 0L382 41Z" fill="#04520a" stroke="#04520a"></path><path d="M239 411L300 459L294 409Z" fill="#07320a" stroke="#07320a"></path><path d="M323 455L328 496L382 462Z" fill="#082506" stroke="#082506"></path><path d="M580 0L534 44L587 44Z" fill="#061f03" stroke="#061f03"></path><path d="M580 0L535 0L534 44Z" fill="#07320a" stroke="#07320a"></path><path d="M717 352L708 326L679 357Z" fill="#04520a" stroke="#04520a"></path><path d="M679 357L708 326L684 317Z" fill="#054c0b" stroke="#054c0b"></path><path d="M684 317L722 281L680 267Z" fill="#061f03" stroke="#061f03"></path><path d="M728 231L715 185L661 237Z" fill="#021a00" stroke="#021a00"></path><path d="M625 456L663 417L624 415Z" fill="#072b08" stroke="#072b08"></path><path d="M627 489L625 456L569 455Z" fill="#021a00" stroke="#021a00"></path><path d="M728 231L661 237L680 267Z" fill="#06380b" stroke="#06380b"></path><path d="M660 123L684 102L612 90Z" fill="#072b08" stroke="#072b08"></path><path d="M708 326L722 281L684 317Z" fill="#04520a" stroke="#04520a"></path><path d="M250 124L199 175L252 185Z" fill="#045909" stroke="#045909"></path><path d="M233 258L185 324L238 317Z" fill="#07320a" stroke="#07320a"></path><path d="M341 0L299 33L339 36Z" fill="#06380b" stroke="#06380b"></path><path d="M339 36L299 33L288 91Z" fill="#053e0b" stroke="#053e0b"></path><path d="M250 124L182 135L199 175Z" fill="#061f03" stroke="#061f03"></path><path d="M204 413L239 411L235 364Z" fill="#053e0b" stroke="#053e0b"></path><path d="M235 364L239 411L294 409Z" fill="#021a00" stroke="#021a00"></path><path d="M712 144L684 102L660 123Z" fill="#072b08" stroke="#072b08"></path><path d="M634 0L580 0L587 44Z" fill="#021a00" stroke="#021a00"></path><path d="M722 281L728 231L680 267Z" fill="#061f03" stroke="#061f03"></path><path d="M180 222L233 258L244 234Z" fill="#04520a" stroke="#04520a"></path><path d="M384 0L341 0L339 36Z" fill="#061f03" stroke="#061f03"></path><path d="M276 491L328 496L300 459Z" fill="#053e0b" stroke="#053e0b"></path><path d="M300 459L328 496L323 455Z" fill="#021a00" stroke="#021a00"></path><path d="M383 540L431 540L426 503Z" fill="#054c0b" stroke="#054c0b"></path><path d="M755 134L712 144L715 185Z" fill="#04520a" stroke="#04520a"></path><path d="M715 185L712 144L659 191Z" fill="#072b08" stroke="#072b08"></path><path d="M199 175L180 222L244 234Z" fill="#06380b" stroke="#06380b"></path><path d="M233 34L228 92L288 91Z" fill="#021a00" stroke="#021a00"></path><path d="M199 175L147 185L180 222Z" fill="#06380b" stroke="#06380b"></path><path d="M634 0L587 44L613 54Z" fill="#054c0b" stroke="#054c0b"></path><path d="M710 415L717 352L679 357Z" fill="#021a00" stroke="#021a00"></path><path d="M764 306L767 270L722 281Z" fill="#06380b" stroke="#06380b"></path><path d="M767 270L764 224L728 231Z" fill="#082506" stroke="#082506"></path><path d="M181 257L185 324L233 258Z" fill="#021a00" stroke="#021a00"></path><path d="M185 324L192 358L238 317Z" fill="#04520a" stroke="#04520a"></path><path d="M426 503L478 540L492 502Z" fill="#07320a" stroke="#07320a"></path><path d="M492 502L531 540L516 499Z" fill="#082506" stroke="#082506"></path><path d="M516 499L531 540L565 487Z" fill="#021a00" stroke="#021a00"></path><path d="M565 487L627 489L569 455Z" fill="#06380b" stroke="#06380b"></path><path d="M431 540L478 540L426 503Z" fill="#05450b" stroke="#05450b"></path><path d="M383 540L426 503L380 489Z" fill="#061f03" stroke="#061f03"></path><path d="M625 456L671 451L663 417Z" fill="#021a00" stroke="#021a00"></path><path d="M663 417L710 415L679 357Z" fill="#082506" stroke="#082506"></path><path d="M578 540L627 489L565 487Z" fill="#053e0b" stroke="#053e0b"></path><path d="M627 489L671 451L625 456Z" fill="#07320a" stroke="#07320a"></path><path d="M711 91L678 53L684 102Z" fill="#04520a" stroke="#04520a"></path><path d="M684 102L678 53L612 90Z" fill="#054c0b" stroke="#054c0b"></path><path d="M197 98L182 135L250 124Z" fill="#072b08" stroke="#072b08"></path><path d="M328 496L383 540L380 489Z" fill="#045909" stroke="#045909"></path><path d="M478 540L531 540L492 502Z" fill="#072b08" stroke="#072b08"></path><path d="M192 358L204 413L235 364Z" fill="#045909" stroke="#045909"></path><path d="M229 449L276 491L300 459Z" fill="#082506" stroke="#082506"></path><path d="M328 496L329 540L383 540Z" fill="#082506" stroke="#082506"></path><path d="M341 0L290 0L299 33Z" fill="#054c0b" stroke="#054c0b"></path><path d="M299 33L233 34L288 91Z" fill="#04520a" stroke="#04520a"></path><path d="M228 92L197 98L250 124Z" fill="#05450b" stroke="#05450b"></path><path d="M193 57L197 98L228 92Z" fill="#06380b" stroke="#06380b"></path><path d="M229 449L300 459L239 411Z" fill="#05450b" stroke="#05450b"></path><path d="M712 144L711 91L684 102Z" fill="#05450b" stroke="#05450b"></path><path d="M755 134L711 91L712 144Z" fill="#082506" stroke="#082506"></path><path d="M204 413L229 449L239 411Z" fill="#053e0b" stroke="#053e0b"></path><path d="M671 451L710 415L663 417Z" fill="#04520a" stroke="#04520a"></path><path d="M679 0L634 0L678 53Z" fill="#07320a" stroke="#07320a"></path><path d="M678 53L634 0L613 54Z" fill="#061f03" stroke="#061f03"></path><path d="M767 270L728 231L722 281Z" fill="#072b08" stroke="#072b08"></path><path d="M728 231L764 224L715 185Z" fill="#04520a" stroke="#04520a"></path><path d="M722 281L708 326L764 306Z" fill="#04520a" stroke="#04520a"></path><path d="M290 0L233 34L299 33Z" fill="#021a00" stroke="#021a00"></path><path d="M764 306L708 326L717 352Z" fill="#061f03" stroke="#061f03"></path><path d="M181 257L148 304L185 324Z" fill="#04520a" stroke="#04520a"></path><path d="M185 324L147 350L192 358Z" fill="#054c0b" stroke="#054c0b"></path><path d="M192 358L143 410L204 413Z" fill="#072b08" stroke="#072b08"></path><path d="M134 272L148 304L181 257Z" fill="#045909" stroke="#045909"></path><path d="M140 229L181 257L180 222Z" fill="#06380b" stroke="#06380b"></path><path d="M769 363L764 306L717 352Z" fill="#072b08" stroke="#072b08"></path><path d="M531 540L578 540L565 487Z" fill="#045909" stroke="#045909"></path><path d="M627 489L670 498L671 451Z" fill="#053e0b" stroke="#053e0b"></path><path d="M671 451L729 450L710 415Z" fill="#07320a" stroke="#07320a"></path><path d="M154 132L147 185L182 135Z" fill="#05450b" stroke="#05450b"></path><path d="M182 135L147 185L199 175Z" fill="#04520a" stroke="#04520a"></path><path d="M154 132L182 135L197 98Z" fill="#06380b" stroke="#06380b"></path><path d="M291 540L328 496L276 491Z" fill="#061f03" stroke="#061f03"></path><path d="M291 540L329 540L328 496Z" fill="#053e0b" stroke="#053e0b"></path><path d="M147 185L140 229L180 222Z" fill="#045909" stroke="#045909"></path><path d="M772 178L755 134L715 185Z" fill="#05450b" stroke="#05450b"></path><path d="M711 91L709 41L678 53Z" fill="#072b08" stroke="#072b08"></path><path d="M140 229L134 272L181 257Z" fill="#06380b" stroke="#06380b"></path><path d="M764 224L772 178L715 185Z" fill="#07320a" stroke="#07320a"></path><path d="M817 183L772 178L764 224Z" fill="#054c0b" stroke="#054c0b"></path><path d="M229 449L240 492L276 491Z" fill="#053e0b" stroke="#053e0b"></path><path d="M189 458L240 492L229 449Z" fill="#045909" stroke="#045909"></path><path d="M189 458L229 449L204 413Z" fill="#06380b" stroke="#06380b"></path><path d="M143 97L154 132L197 98Z" fill="#06380b" stroke="#06380b"></path><path d="M93 237L134 272L140 229Z" fill="#06380b" stroke="#06380b"></path><path d="M97 320L147 350L148 304Z" fill="#072b08" stroke="#072b08"></path><path d="M148 304L147 350L185 324Z" fill="#072b08" stroke="#072b08"></path><path d="M233 34L193 57L228 92Z" fill="#082506" stroke="#082506"></path><path d="M181 0L193 57L233 34Z" fill="#054c0b" stroke="#054c0b"></path><path d="M626 540L670 498L627 489Z" fill="#07320a" stroke="#07320a"></path><path d="M761 392L769 363L717 352Z" fill="#06380b" stroke="#06380b"></path><path d="M764 50L709 41L711 91Z" fill="#061f03" stroke="#061f03"></path><path d="M761 392L717 352L710 415Z" fill="#06380b" stroke="#06380b"></path><path d="M811 314L815 258L767 270Z" fill="#045909" stroke="#045909"></path><path d="M767 270L815 258L764 224Z" fill="#061f03" stroke="#061f03"></path><path d="M245 540L291 540L276 491Z" fill="#082506" stroke="#082506"></path><path d="M709 41L679 0L678 53Z" fill="#07320a" stroke="#07320a"></path><path d="M578 540L626 540L627 489Z" fill="#054c0b" stroke="#054c0b"></path><path d="M729 450L761 392L710 415Z" fill="#061f03" stroke="#061f03"></path><path d="M728 485L671 451L670 498Z" fill="#045909" stroke="#045909"></path><path d="M728 485L729 450L671 451Z" fill="#04520a" stroke="#04520a"></path><path d="M153 443L189 458L204 413Z" fill="#045909" stroke="#045909"></path><path d="M240 492L245 540L276 491Z" fill="#061f03" stroke="#061f03"></path><path d="M290 0L228 0L233 34Z" fill="#07320a" stroke="#07320a"></path><path d="M804 101L764 100L755 134Z" fill="#053e0b" stroke="#053e0b"></path><path d="M755 134L764 100L711 91Z" fill="#061f03" stroke="#061f03"></path><path d="M709 41L720 0L679 0Z" fill="#082506" stroke="#082506"></path><path d="M151 56L197 98L193 57Z" fill="#07320a" stroke="#07320a"></path><path d="M151 56L143 97L197 98Z" fill="#054c0b" stroke="#054c0b"></path><path d="M154 132L107 171L147 185Z" fill="#021a00" stroke="#021a00"></path><path d="M93 237L100 276L134 272Z" fill="#053e0b" stroke="#053e0b"></path><path d="M84 367L143 410L147 350Z" fill="#072b08" stroke="#072b08"></path><path d="M147 350L143 410L192 358Z" fill="#054c0b" stroke="#054c0b"></path><path d="M107 171L140 229L147 185Z" fill="#082506" stroke="#082506"></path><path d="M134 272L100 276L148 304Z" fill="#054c0b" stroke="#054c0b"></path><path d="M85 138L107 171L154 132Z" fill="#07320a" stroke="#07320a"></path><path d="M183 483L240 492L189 458Z" fill="#082506" stroke="#082506"></path><path d="M184 540L245 540L240 492Z" fill="#05450b" stroke="#05450b"></path><path d="M153 443L183 483L189 458Z" fill="#072b08" stroke="#072b08"></path><path d="M811 314L764 306L769 363Z" fill="#05450b" stroke="#05450b"></path><path d="M811 314L767 270L764 306Z" fill="#045909" stroke="#045909"></path><path d="M824 131L804 101L755 134Z" fill="#061f03" stroke="#061f03"></path><path d="M97 441L153 443L143 410Z" fill="#082506" stroke="#082506"></path><path d="M143 410L153 443L204 413Z" fill="#04520a" stroke="#04520a"></path><path d="M708 540L728 485L670 498Z" fill="#082506" stroke="#082506"></path><path d="M825 414L810 366L761 392Z" fill="#053e0b" stroke="#053e0b"></path><path d="M810 366L811 314L769 363Z" fill="#045909" stroke="#045909"></path><path d="M810 366L769 363L761 392Z" fill="#082506" stroke="#082506"></path><path d="M181 0L151 56L193 57Z" fill="#07320a" stroke="#07320a"></path><path d="M143 97L85 138L154 132Z" fill="#021a00" stroke="#021a00"></path><path d="M626 540L673 540L670 498Z" fill="#061f03" stroke="#061f03"></path><path d="M107 171L93 237L140 229Z" fill="#072b08" stroke="#072b08"></path><path d="M764 50L720 0L709 41Z" fill="#021a00" stroke="#021a00"></path><path d="M57 274L97 320L100 276Z" fill="#021a00" stroke="#021a00"></path><path d="M100 276L97 320L148 304Z" fill="#053e0b" stroke="#053e0b"></path><path d="M824 236L817 183L764 224Z" fill="#082506" stroke="#082506"></path><path d="M764 100L764 50L711 91Z" fill="#082506" stroke="#082506"></path><path d="M804 101L764 50L764 100Z" fill="#061f03" stroke="#061f03"></path><path d="M859 267L824 236L815 258Z" fill="#082506" stroke="#082506"></path><path d="M815 258L824 236L764 224Z" fill="#082506" stroke="#082506"></path><path d="M228 0L181 0L233 34Z" fill="#061f03" stroke="#061f03"></path><path d="M779 459L761 392L729 450Z" fill="#06380b" stroke="#06380b"></path><path d="M811 314L859 267L815 258Z" fill="#054c0b" stroke="#054c0b"></path><path d="M824 131L755 134L772 178Z" fill="#054c0b" stroke="#054c0b"></path><path d="M673 540L708 540L670 498Z" fill="#053e0b" stroke="#053e0b"></path><path d="M728 485L779 459L729 450Z" fill="#045909" stroke="#045909"></path><path d="M778 502L779 459L728 485Z" fill="#072b08" stroke="#072b08"></path><path d="M874 181L824 131L817 183Z" fill="#07320a" stroke="#07320a"></path><path d="M817 183L824 131L772 178Z" fill="#082506" stroke="#082506"></path><path d="M43 191L45 220L93 237Z" fill="#045909" stroke="#045909"></path><path d="M59 370L84 367L97 320Z" fill="#072b08" stroke="#072b08"></path><path d="M101 84L85 138L143 97Z" fill="#021a00" stroke="#021a00"></path><path d="M101 84L143 97L151 56Z" fill="#05450b" stroke="#05450b"></path><path d="M97 320L84 367L147 350Z" fill="#04520a" stroke="#04520a"></path><path d="M146 504L184 540L183 483Z" fill="#061f03" stroke="#061f03"></path><path d="M57 274L100 276L93 237Z" fill="#061f03" stroke="#061f03"></path><path d="M84 367L101 412L143 410Z" fill="#045909" stroke="#045909"></path><path d="M183 483L184 540L240 492Z" fill="#053e0b" stroke="#053e0b"></path><path d="M181 0L155 0L151 56Z" fill="#054c0b" stroke="#054c0b"></path><path d="M104 54L101 84L151 56Z" fill="#04520a" stroke="#04520a"></path><path d="M146 504L183 483L153 443Z" fill="#06380b" stroke="#06380b"></path><path d="M816 35L765 0L764 50Z" fill="#072b08" stroke="#072b08"></path><path d="M764 50L765 0L720 0Z" fill="#061f03" stroke="#061f03"></path><path d="M816 35L764 50L804 101Z" fill="#05450b" stroke="#05450b"></path><path d="M45 220L57 274L93 237Z" fill="#021a00" stroke="#021a00"></path><path d="M108 494L146 504L153 443Z" fill="#072b08" stroke="#072b08"></path><path d="M155 0L104 54L151 56Z" fill="#021a00" stroke="#021a00"></path><path d="M38 132L43 191L85 138Z" fill="#054c0b" stroke="#054c0b"></path><path d="M857 318L859 267L811 314Z" fill="#021a00" stroke="#021a00"></path><path d="M824 236L874 226L817 183Z" fill="#061f03" stroke="#061f03"></path><path d="M857 318L811 314L810 366Z" fill="#04520a" stroke="#04520a"></path><path d="M809 462L825 414L779 459Z" fill="#021a00" stroke="#021a00"></path><path d="M779 459L825 414L761 392Z" fill="#053e0b" stroke="#053e0b"></path><path d="M56 415L97 441L101 412Z" fill="#054c0b" stroke="#054c0b"></path><path d="M101 412L97 441L143 410Z" fill="#05450b" stroke="#05450b"></path><path d="M56 415L101 412L84 367Z" fill="#072b08" stroke="#072b08"></path><path d="M876 365L857 318L810 366Z" fill="#07320a" stroke="#07320a"></path><path d="M775 540L778 502L728 485Z" fill="#054c0b" stroke="#054c0b"></path><path d="M778 502L809 462L779 459Z" fill="#07320a" stroke="#07320a"></path><path d="M43 191L107 171L85 138Z" fill="#021a00" stroke="#021a00"></path><path d="M43 191L93 237L107 171Z" fill="#045909" stroke="#045909"></path><path d="M41 312L97 320L57 274Z" fill="#061f03" stroke="#061f03"></path><path d="M41 312L59 370L97 320Z" fill="#021a00" stroke="#021a00"></path><path d="M54 90L85 138L101 84Z" fill="#054c0b" stroke="#054c0b"></path><path d="M905 222L874 226L915 271Z" fill="#061f03" stroke="#061f03"></path><path d="M859 267L874 226L824 236Z" fill="#082506" stroke="#082506"></path><path d="M866 52L816 35L804 101Z" fill="#053e0b" stroke="#053e0b"></path><path d="M873 82L804 101L824 131Z" fill="#072b08" stroke="#072b08"></path><path d="M0 276L41 312L57 274Z" fill="#061f03" stroke="#061f03"></path><path d="M0 276L57 274L45 220Z" fill="#082506" stroke="#082506"></path><path d="M146 504L147 540L184 540Z" fill="#053e0b" stroke="#053e0b"></path><path d="M108 494L147 540L146 504Z" fill="#072b08" stroke="#072b08"></path><path d="M108 494L153 443L97 441Z" fill="#06380b" stroke="#06380b"></path><path d="M874 226L874 181L817 183Z" fill="#053e0b" stroke="#053e0b"></path><path d="M37 455L108 494L97 441Z" fill="#05450b" stroke="#05450b"></path><path d="M874 181L870 131L824 131Z" fill="#053e0b" stroke="#053e0b"></path><path d="M708 540L775 540L728 485Z" fill="#04520a" stroke="#04520a"></path><path d="M778 502L823 506L809 462Z" fill="#06380b" stroke="#06380b"></path><path d="M59 370L56 415L84 367Z" fill="#072b08" stroke="#072b08"></path><path d="M0 393L56 415L59 370Z" fill="#072b08" stroke="#072b08"></path><path d="M42 42L54 90L104 54Z" fill="#054c0b" stroke="#054c0b"></path><path d="M104 54L54 90L101 84Z" fill="#06380b" stroke="#06380b"></path><path d="M866 0L811 0L816 35Z" fill="#061f03" stroke="#061f03"></path><path d="M816 35L811 0L765 0Z" fill="#04520a" stroke="#04520a"></path><path d="M54 90L38 132L85 138Z" fill="#07320a" stroke="#07320a"></path><path d="M0 221L0 276L45 220Z" fill="#061f03" stroke="#061f03"></path><path d="M869 404L876 365L810 366Z" fill="#07320a" stroke="#07320a"></path><path d="M857 318L899 307L859 267Z" fill="#04520a" stroke="#04520a"></path><path d="M874 226L905 222L874 181Z" fill="#045909" stroke="#045909"></path><path d="M869 404L810 366L825 414Z" fill="#082506" stroke="#082506"></path><path d="M851 445L825 414L809 462Z" fill="#04520a" stroke="#04520a"></path><path d="M155 0L94 0L104 54Z" fill="#04520a" stroke="#04520a"></path><path d="M854 494L851 445L809 462Z" fill="#06380b" stroke="#06380b"></path><path d="M851 445L869 404L825 414Z" fill="#054c0b" stroke="#054c0b"></path><path d="M900 350L857 318L876 365Z" fill="#05450b" stroke="#05450b"></path><path d="M900 350L899 307L857 318Z" fill="#04520a" stroke="#04520a"></path><path d="M910 91L873 82L870 131Z" fill="#045909" stroke="#045909"></path><path d="M803 540L823 506L778 502Z" fill="#05450b" stroke="#05450b"></path><path d="M920 168L870 131L874 181Z" fill="#07320a" stroke="#07320a"></path><path d="M870 131L873 82L824 131Z" fill="#045909" stroke="#045909"></path><path d="M915 271L874 226L859 267Z" fill="#05450b" stroke="#05450b"></path><path d="M775 540L803 540L778 502Z" fill="#061f03" stroke="#061f03"></path><path d="M918 406L876 365L869 404Z" fill="#045909" stroke="#045909"></path><path d="M918 406L900 350L876 365Z" fill="#053e0b" stroke="#053e0b"></path><path d="M899 307L915 271L859 267Z" fill="#04520a" stroke="#04520a"></path><path d="M918 406L869 404L907 451Z" fill="#072b08" stroke="#072b08"></path><path d="M873 82L866 52L804 101Z" fill="#054c0b" stroke="#054c0b"></path><path d="M0 221L45 220L43 191Z" fill="#045909" stroke="#045909"></path><path d="M41 312L0 363L59 370Z" fill="#05450b" stroke="#05450b"></path><path d="M0 189L43 191L38 132Z" fill="#05450b" stroke="#05450b"></path><path d="M0 189L0 221L43 191Z" fill="#021a00" stroke="#021a00"></path><path d="M960 262L915 271L960 314Z" fill="#07320a" stroke="#07320a"></path><path d="M0 132L0 189L38 132Z" fill="#054c0b" stroke="#054c0b"></path><path d="M0 132L38 132L0 101Z" fill="#053e0b" stroke="#053e0b"></path><path d="M0 276L0 324L41 312Z" fill="#054c0b" stroke="#054c0b"></path><path d="M94 0L42 42L104 54Z" fill="#072b08" stroke="#072b08"></path><path d="M0 393L37 455L56 415Z" fill="#082506" stroke="#082506"></path><path d="M56 415L37 455L97 441Z" fill="#021a00" stroke="#021a00"></path><path d="M108 494L83 540L147 540Z" fill="#05450b" stroke="#05450b"></path><path d="M858 540L854 494L823 506Z" fill="#07320a" stroke="#07320a"></path><path d="M823 506L854 494L809 462Z" fill="#072b08" stroke="#072b08"></path><path d="M0 324L0 363L41 312Z" fill="#04520a" stroke="#04520a"></path><path d="M905 222L920 168L874 181Z" fill="#053e0b" stroke="#053e0b"></path><path d="M873 82L906 54L866 52Z" fill="#07320a" stroke="#07320a"></path><path d="M960 183L920 168L905 222Z" fill="#07320a" stroke="#07320a"></path><path d="M0 101L38 132L54 90Z" fill="#07320a" stroke="#07320a"></path><path d="M94 0L56 0L42 42Z" fill="#082506" stroke="#082506"></path><path d="M42 42L0 101L54 90Z" fill="#05450b" stroke="#05450b"></path><path d="M45 504L83 540L108 494Z" fill="#045909" stroke="#045909"></path><path d="M0 363L0 393L59 370Z" fill="#053e0b" stroke="#053e0b"></path><path d="M37 455L45 504L108 494Z" fill="#082506" stroke="#082506"></path><path d="M960 183L923 142L920 168Z" fill="#06380b" stroke="#06380b"></path><path d="M920 168L923 142L870 131Z" fill="#07320a" stroke="#07320a"></path><path d="M0 38L0 101L42 42Z" fill="#061f03" stroke="#061f03"></path><path d="M866 52L866 0L816 35Z" fill="#04520a" stroke="#04520a"></path><path d="M906 54L866 0L866 52Z" fill="#045909" stroke="#045909"></path><path d="M923 142L910 91L870 131Z" fill="#061f03" stroke="#061f03"></path><path d="M0 482L45 504L37 455Z" fill="#07320a" stroke="#07320a"></path><path d="M907 451L869 404L851 445Z" fill="#021a00" stroke="#021a00"></path><path d="M960 314L915 271L899 307Z" fill="#07320a" stroke="#07320a"></path><path d="M915 271L960 262L905 222Z" fill="#053e0b" stroke="#053e0b"></path><path d="M960 56L906 54L910 91Z" fill="#072b08" stroke="#072b08"></path><path d="M910 91L906 54L873 82Z" fill="#05450b" stroke="#05450b"></path><path d="M0 540L58 540L45 504Z" fill="#082506" stroke="#082506"></path><path d="M45 504L58 540L83 540Z" fill="#053e0b" stroke="#053e0b"></path><path d="M854 494L907 451L851 445Z" fill="#082506" stroke="#082506"></path><path d="M914 501L907 451L854 494Z" fill="#021a00" stroke="#021a00"></path><path d="M803 540L858 540L823 506Z" fill="#054c0b" stroke="#054c0b"></path><path d="M0 393L0 458L37 455Z" fill="#054c0b" stroke="#054c0b"></path><path d="M0 0L0 38L42 42Z" fill="#061f03" stroke="#061f03"></path><path d="M960 314L900 350L960 364Z" fill="#05450b" stroke="#05450b"></path><path d="M960 314L899 307L900 350Z" fill="#061f03" stroke="#061f03"></path><path d="M923 142L960 100L910 91Z" fill="#021a00" stroke="#021a00"></path><path d="M960 262L960 221L905 222Z" fill="#072b08" stroke="#072b08"></path><path d="M960 364L900 350L918 406Z" fill="#021a00" stroke="#021a00"></path><path d="M960 221L960 183L905 222Z" fill="#05450b" stroke="#05450b"></path><path d="M0 458L0 482L37 455Z" fill="#045909" stroke="#045909"></path><path d="M960 392L918 406L960 448Z" fill="#082506" stroke="#082506"></path><path d="M960 392L960 364L918 406Z" fill="#054c0b" stroke="#054c0b"></path><path d="M960 183L960 127L923 142Z" fill="#053e0b" stroke="#053e0b"></path><path d="M56 0L0 0L42 42Z" fill="#021a00" stroke="#021a00"></path><path d="M858 540L914 501L854 494Z" fill="#021a00" stroke="#021a00"></path><path d="M960 448L918 406L907 451Z" fill="#053e0b" stroke="#053e0b"></path><path d="M960 127L960 100L923 142Z" fill="#061f03" stroke="#061f03"></path><path d="M906 54L924 0L866 0Z" fill="#072b08" stroke="#072b08"></path><path d="M960 56L924 0L906 54Z" fill="#05450b" stroke="#05450b"></path><path d="M858 540L906 540L914 501Z" fill="#054c0b" stroke="#054c0b"></path><path d="M960 487L960 448L907 451Z" fill="#07320a" stroke="#07320a"></path><path d="M960 100L960 56L910 91Z" fill="#06380b" stroke="#06380b"></path><path d="M0 482L0 540L45 504Z" fill="#07320a" stroke="#07320a"></path><path d="M960 487L907 451L914 501Z" fill="#05450b" stroke="#05450b"></path><path d="M960 540L960 487L914 501Z" fill="#07320a" stroke="#07320a"></path><path d="M960 56L960 0L924 0Z" fill="#045909" stroke="#045909"></path><path d="M906 540L960 540L914 501Z" fill="#06380b" stroke="#06380b"></path></g></svg>