<svg id="visual" viewBox="0 0 960 540" width="960" height="540" xmlns="http://www.w3.org/2000/svg" xmlns:xlink="http://www.w3.org/1999/xlink" version="1.1"><rect width="960" height="540" fill="#001829"></rect><g><g transform="translate(867 339)"><path d="M0 -12.8L11.1 -6.4L11.1 6.4L0 12.8L-11.1 6.4L-11.1 -6.4Z" fill="none" stroke="#297EA6" stroke-width="2"></path></g><g transform="translate(766 467)"><path d="M0 -9L7.8 -4.5L7.8 4.5L0 9L-7.8 4.5L-7.8 -4.5Z" fill="none" stroke="#297EA6" stroke-width="2"></path></g><g transform="translate(354 318)"><path d="M0 -10L8.7 -5L8.7 5L0 10L-8.7 5L-8.7 -5Z" stroke="#297EA6" fill="none" stroke-width="2"></path></g><g transform="translate(327 183)"><path d="M0 -1L0.9 -0.5L0.9 0.5L0 1L-0.9 0.5L-0.9 -0.5Z" stroke="#297EA6" fill="none" stroke-width="2"></path></g><g transform="translate(96 335)"><path d="M0 -3L2.6 -1.5L2.6 1.5L0 3L-2.6 1.5L-2.6 -1.5Z" stroke="#297EA6" fill="none" stroke-width="2"></path></g><g transform="translate(150 41)"><path d="M0 -8L6.9 -4L6.9 4L0 8L-6.9 4L-6.9 -4Z" stroke="#297EA6" fill="none" stroke-width="2"></path></g><g transform="translate(838 440)"><path d="M0 -4L3.5 -2L3.5 2L0 4L-3.5 2L-3.5 -2Z" stroke="#297EA6" fill="none" stroke-width="2"></path></g><g transform="translate(396 254)"><path d="M0 -11L9.5 -5.5L9.5 5.5L0 11L-9.5 5.5L-9.5 -5.5Z" stroke="#297EA6" fill="none" stroke-width="2"></path></g><g transform="translate(508 461)"><path d="M0 -7L6.1 -3.5L6.1 3.5L0 7L-6.1 3.5L-6.1 -3.5Z" stroke="#297EA6" fill="none" stroke-width="2"></path></g><g transform="translate(342 13)"><path d="M0 -9L7.8 -4.5L7.8 4.5L0 9L-7.8 4.5L-7.8 -4.5Z" stroke="#297EA6" fill="none" stroke-width="2"></path></g><g transform="translate(183 470)"><path d="M0 -10L8.7 -5L8.7 5L0 10L-8.7 5L-8.7 -5Z" stroke="#297EA6" fill="none" stroke-width="2"></path></g><g transform="translate(196 87)"><path d="M0 -10L8.7 -5L8.7 5L0 10L-8.7 5L-8.7 -5Z" stroke="#297EA6" fill="none" stroke-width="2"></path></g><g transform="translate(741 322)"><path d="M0 -6L5.2 -3L5.2 3L0 6L-5.2 3L-5.2 -3Z" stroke="#297EA6" fill="none" stroke-width="2"></path></g><g transform="translate(932 317)"><path d="M0 -6L5.2 -3L5.2 3L0 6L-5.2 3L-5.2 -3Z" stroke="#297EA6" fill="none" stroke-width="2"></path></g><g transform="translate(346 91)"><path d="M0 -4L3.5 -2L3.5 2L0 4L-3.5 2L-3.5 -2Z" stroke="#297EA6" fill="none" stroke-width="2"></path></g><g transform="translate(396 513)"><path d="M0 -3L2.6 -1.5L2.6 1.5L0 3L-2.6 1.5L-2.6 -1.5Z" stroke="#297EA6" fill="none" stroke-width="2"></path></g><g transform="translate(782 362)"><path d="M0 -7L6.1 -3.5L6.1 3.5L0 7L-6.1 3.5L-6.1 -3.5Z" stroke="#297EA6" fill="none" stroke-width="2"></path></g><g transform="translate(629 256)"><path d="M0 -10L8.7 -5L8.7 5L0 10L-8.7 5L-8.7 -5Z" stroke="#297EA6" fill="none" stroke-width="2"></path></g><g transform="translate(909 148)"><path d="M0 -1L0.9 -0.5L0.9 0.5L0 1L-0.9 0.5L-0.9 -0.5Z" stroke="#297EA6" fill="none" stroke-width="2"></path></g><g transform="translate(312 211)"><path d="M0 -3L2.6 -1.5L2.6 1.5L0 3L-2.6 1.5L-2.6 -1.5Z" stroke="#297EA6" fill="none" stroke-width="2"></path></g><g transform="translate(956 215)"><path d="M0 -3L2.6 -1.5L2.6 1.5L0 3L-2.6 1.5L-2.6 -1.5Z" stroke="#297EA6" fill="none" stroke-width="2"></path></g><g transform="translate(438 515)"><path d="M0 -5L4.3 -2.5L4.3 2.5L0 5L-4.3 2.5L-4.3 -2.5Z" stroke="#297EA6" fill="none" stroke-width="2"></path></g><g transform="translate(943 66)"><path d="M0 -8L6.9 -4L6.9 4L0 8L-6.9 4L-6.9 -4Z" stroke="#297EA6" fill="none" stroke-width="2"></path></g><g transform="translate(798 46)"><path d="M0 -9L7.8 -4.5L7.8 4.5L0 9L-7.8 4.5L-7.8 -4.5Z" stroke="#297EA6" fill="none" stroke-width="2"></path></g><g transform="translate(787 3)"><path d="M0 -5L4.3 -2.5L4.3 2.5L0 5L-4.3 2.5L-4.3 -2.5Z" stroke="#297EA6" fill="none" stroke-width="2"></path></g><g transform="translate(112 204)"><path d="M0 -1L0.9 -0.5L0.9 0.5L0 1L-0.9 0.5L-0.9 -0.5Z" stroke="#297EA6" fill="none" stroke-width="2"></path></g><g transform="translate(780 442)"><path d="M0 -4L3.5 -2L3.5 2L0 4L-3.5 2L-3.5 -2Z" stroke="#297EA6" fill="none" stroke-width="2"></path></g><g transform="translate(17 212)"><path d="M0 -3L2.6 -1.5L2.6 1.5L0 3L-2.6 1.5L-2.6 -1.5Z" stroke="#297EA6" fill="none" stroke-width="2"></path></g><g transform="translate(107 308)"><path d="M0 -1L0.9 -0.5L0.9 0.5L0 1L-0.9 0.5L-0.9 -0.5Z" stroke="#297EA6" fill="none" stroke-width="2"></path></g><g transform="translate(154 104)"><path d="M0 -7L6.1 -3.5L6.1 3.5L0 7L-6.1 3.5L-6.1 -3.5Z" stroke="#297EA6" fill="none" stroke-width="2"></path></g><g transform="translate(79 118)"><path d="M0 -2L1.7 -1L1.7 1L0 2L-1.7 1L-1.7 -1Z" stroke="#297EA6" fill="none" stroke-width="2"></path></g><g transform="translate(883 189)"><path d="M0 -11L9.5 -5.5L9.5 5.5L0 11L-9.5 5.5L-9.5 -5.5Z" stroke="#297EA6" fill="none" stroke-width="2"></path></g><g transform="translate(788 537)"><path d="M0 -11L9.5 -5.5L9.5 5.5L0 11L-9.5 5.5L-9.5 -5.5Z" stroke="#297EA6" fill="none" stroke-width="2"></path></g><g transform="translate(714 388)"><path d="M0 -11L9.5 -5.5L9.5 5.5L0 11L-9.5 5.5L-9.5 -5.5Z" stroke="#297EA6" fill="none" stroke-width="2"></path></g><g transform="translate(81 375)"><path d="M0 -8L6.9 -4L6.9 4L0 8L-6.9 4L-6.9 -4Z" stroke="#297EA6" fill="none" stroke-width="2"></path></g><g transform="translate(263 89)"><path d="M0 -6L5.2 -3L5.2 3L0 6L-5.2 3L-5.2 -3Z" stroke="#297EA6" fill="none" stroke-width="2"></path></g><g transform="translate(833 27)"><path d="M0 -10L8.7 -5L8.7 5L0 10L-8.7 5L-8.7 -5Z" stroke="#297EA6" fill="none" stroke-width="2"></path></g><g transform="translate(560 203)"><path d="M0 -4L3.5 -2L3.5 2L0 4L-3.5 2L-3.5 -2Z" stroke="#297EA6" fill="none" stroke-width="2"></path></g><g transform="translate(441 400)"><path d="M0 -10L8.7 -5L8.7 5L0 10L-8.7 5L-8.7 -5Z" stroke="#297EA6" fill="none" stroke-width="2"></path></g><g transform="translate(403 175)"><path d="M0 -2L1.7 -1L1.7 1L0 2L-1.7 1L-1.7 -1Z" stroke="#297EA6" fill="none" stroke-width="2"></path></g><g transform="translate(461 202)"><path d="M0 -1L0.9 -0.5L0.9 0.5L0 1L-0.9 0.5L-0.9 -0.5Z" stroke="#297EA6" fill="none" stroke-width="2"></path></g><g transform="translate(673 390)"><path d="M0 -3L2.6 -1.5L2.6 1.5L0 3L-2.6 1.5L-2.6 -1.5Z" stroke="#297EA6" fill="none" stroke-width="2"></path></g><g transform="translate(7 525)"><path d="M0 -11L9.5 -5.5L9.5 5.5L0 11L-9.5 5.5L-9.5 -5.5Z" stroke="#297EA6" fill="none" stroke-width="2"></path></g><g transform="translate(207 506)"><path d="M0 -2L1.7 -1L1.7 1L0 2L-1.7 1L-1.7 -1Z" stroke="#297EA6" fill="none" stroke-width="2"></path></g><g transform="translate(47 386)"><path d="M0 -1L0.9 -0.5L0.9 0.5L0 1L-0.9 0.5L-0.9 -0.5Z" stroke="#297EA6" fill="none" stroke-width="2"></path></g><g transform="translate(705 77)"><path d="M0 -7L6.1 -3.5L6.1 3.5L0 7L-6.1 3.5L-6.1 -3.5Z" stroke="#297EA6" fill="none" stroke-width="2"></path></g><g transform="translate(765 181)"><path d="M0 -10L8.7 -5L8.7 5L0 10L-8.7 5L-8.7 -5Z" stroke="#297EA6" fill="none" stroke-width="2"></path></g><g transform="translate(409 462)"><path d="M0 -2L1.7 -1L1.7 1L0 2L-1.7 1L-1.7 -1Z" stroke="#297EA6" fill="none" stroke-width="2"></path></g><g transform="translate(72 203)"><path d="M0 -1L0.9 -0.5L0.9 0.5L0 1L-0.9 0.5L-0.9 -0.5Z" stroke="#297EA6" fill="none" stroke-width="2"></path></g><g transform="translate(675 496)"><path d="M0 -3L2.6 -1.5L2.6 1.5L0 3L-2.6 1.5L-2.6 -1.5Z" stroke="#297EA6" fill="none" stroke-width="2"></path></g><g transform="translate(938 502)"><path d="M0 -6L5.2 -3L5.2 3L0 6L-5.2 3L-5.2 -3Z" stroke="#297EA6" fill="none" stroke-width="2"></path></g><g transform="translate(706 468)"><path d="M0 -5L4.3 -2.5L4.3 2.5L0 5L-4.3 2.5L-4.3 -2.5Z" stroke="#297EA6" fill="none" stroke-width="2"></path></g><g transform="translate(118 56)"><path d="M0 -2L1.7 -1L1.7 1L0 2L-1.7 1L-1.7 -1Z" stroke="#297EA6" fill="none" stroke-width="2"></path></g><g transform="translate(958 134)"><path d="M0 -4L3.5 -2L3.5 2L0 4L-3.5 2L-3.5 -2Z" stroke="#297EA6" fill="none" stroke-width="2"></path></g><g transform="translate(439 15)"><path d="M0 -1L0.9 -0.5L0.9 0.5L0 1L-0.9 0.5L-0.9 -0.5Z" stroke="#297EA6" fill="none" stroke-width="2"></path></g><g transform="translate(266 391)"><path d="M0 -9L7.8 -4.5L7.8 4.5L0 9L-7.8 4.5L-7.8 -4.5Z" stroke="#297EA6" fill="none" stroke-width="2"></path></g><g transform="translate(71 322)"><path d="M0 -3L2.6 -1.5L2.6 1.5L0 3L-2.6 1.5L-2.6 -1.5Z" stroke="#297EA6" fill="none" stroke-width="2"></path></g><g transform="translate(520 84)"><path d="M0 -3L2.6 -1.5L2.6 1.5L0 3L-2.6 1.5L-2.6 -1.5Z" stroke="#297EA6" fill="none" stroke-width="2"></path></g><g transform="translate(388 115)"><path d="M0 -6L5.2 -3L5.2 3L0 6L-5.2 3L-5.2 -3Z" stroke="#297EA6" fill="none" stroke-width="2"></path></g><g transform="translate(588 435)"><path d="M0 -10L8.7 -5L8.7 5L0 10L-8.7 5L-8.7 -5Z" stroke="#297EA6" fill="none" stroke-width="2"></path></g><g transform="translate(806 193)"><path d="M0 -8L6.9 -4L6.9 4L0 8L-6.9 4L-6.9 -4Z" stroke="#297EA6" fill="none" stroke-width="2"></path></g><g transform="translate(602 71)"><path d="M0 -11L9.5 -5.5L9.5 5.5L0 11L-9.5 5.5L-9.5 -5.5Z" stroke="#297EA6" fill="none" stroke-width="2"></path></g><g transform="translate(719 131)"><path d="M0 -1L0.9 -0.5L0.9 0.5L0 1L-0.9 0.5L-0.9 -0.5Z" stroke="#297EA6" fill="none" stroke-width="2"></path></g><g transform="translate(635 296)"><path d="M0 -7L6.1 -3.5L6.1 3.5L0 7L-6.1 3.5L-6.1 -3.5Z" stroke="#297EA6" fill="none" stroke-width="2"></path></g><g transform="translate(126 378)"><path d="M0 -9L7.8 -4.5L7.8 4.5L0 9L-7.8 4.5L-7.8 -4.5Z" stroke="#297EA6" fill="none" stroke-width="2"></path></g><g transform="translate(929 408)"><path d="M0 -1L0.9 -0.5L0.9 0.5L0 1L-0.9 0.5L-0.9 -0.5Z" stroke="#297EA6" fill="none" stroke-width="2"></path></g><g transform="translate(385 306)"><path d="M0 -7L6.1 -3.5L6.1 3.5L0 7L-6.1 3.5L-6.1 -3.5Z" stroke="#297EA6" fill="none" stroke-width="2"></path></g><g transform="translate(468 318)"><path d="M0 -11L9.5 -5.5L9.5 5.5L0 11L-9.5 5.5L-9.5 -5.5Z" stroke="#297EA6" fill="none" stroke-width="2"></path></g><g transform="translate(96 499)"><path d="M0 -9L7.8 -4.5L7.8 4.5L0 9L-7.8 4.5L-7.8 -4.5Z" stroke="#297EA6" fill="none" stroke-width="2"></path></g><g transform="translate(638 517)"><path d="M0 -5L4.3 -2.5L4.3 2.5L0 5L-4.3 2.5L-4.3 -2.5Z" stroke="#297EA6" fill="none" stroke-width="2"></path></g><g transform="translate(727 220)"><path d="M0 -4L3.5 -2L3.5 2L0 4L-3.5 2L-3.5 -2Z" stroke="#297EA6" fill="none" stroke-width="2"></path></g><g transform="translate(567 387)"><path d="M0 -9L7.8 -4.5L7.8 4.5L0 9L-7.8 4.5L-7.8 -4.5Z" stroke="#297EA6" fill="none" stroke-width="2"></path></g><g transform="translate(377 452)"><path d="M0 -1L0.9 -0.5L0.9 0.5L0 1L-0.9 0.5L-0.9 -0.5Z" stroke="#297EA6" fill="none" stroke-width="2"></path></g><g transform="translate(673 243)"><path d="M0 -3L2.6 -1.5L2.6 1.5L0 3L-2.6 1.5L-2.6 -1.5Z" stroke="#297EA6" fill="none" stroke-width="2"></path></g><g transform="translate(669 443)"><path d="M0 -5L4.3 -2.5L4.3 2.5L0 5L-4.3 2.5L-4.3 -2.5Z" stroke="#297EA6" fill="none" stroke-width="2"></path></g><g transform="translate(614 213)"><path d="M0 -2L1.7 -1L1.7 1L0 2L-1.7 1L-1.7 -1Z" stroke="#297EA6" fill="none" stroke-width="2"></path></g><g transform="translate(661 272)"><path d="M0 -1L0.9 -0.5L0.9 0.5L0 1L-0.9 0.5L-0.9 -0.5Z" stroke="#297EA6" fill="none" stroke-width="2"></path></g><g transform="translate(319 96)"><path d="M0 -6L5.2 -3L5.2 3L0 6L-5.2 3L-5.2 -3Z" stroke="#297EA6" fill="none" stroke-width="2"></path></g><g transform="translate(542 293)"><path d="M0 -1L0.9 -0.5L0.9 0.5L0 1L-0.9 0.5L-0.9 -0.5Z" stroke="#297EA6" fill="none" stroke-width="2"></path></g><g transform="translate(422 209)"><path d="M0 -3L2.6 -1.5L2.6 1.5L0 3L-2.6 1.5L-2.6 -1.5Z" stroke="#297EA6" fill="none" stroke-width="2"></path></g><g transform="translate(366 60)"><path d="M0 -8L6.9 -4L6.9 4L0 8L-6.9 4L-6.9 -4Z" stroke="#297EA6" fill="none" stroke-width="2"></path></g><g transform="translate(587 137)"><path d="M0 -4L3.5 -2L3.5 2L0 4L-3.5 2L-3.5 -2Z" stroke="#297EA6" fill="none" stroke-width="2"></path></g><g transform="translate(463 413)"><path d="M0 -10L8.7 -5L8.7 5L0 10L-8.7 5L-8.7 -5Z" stroke="#297EA6" fill="none" stroke-width="2"></path></g><g transform="translate(601 326)"><path d="M0 -5L4.3 -2.5L4.3 2.5L0 5L-4.3 2.5L-4.3 -2.5Z" stroke="#297EA6" fill="none" stroke-width="2"></path></g><g transform="translate(140 257)"><path d="M0 -2L1.7 -1L1.7 1L0 2L-1.7 1L-1.7 -1Z" stroke="#297EA6" fill="none" stroke-width="2"></path></g><g transform="translate(402 376)"><path d="M0 -7L6.1 -3.5L6.1 3.5L0 7L-6.1 3.5L-6.1 -3.5Z" stroke="#297EA6" fill="none" stroke-width="2"></path></g><g transform="translate(747 80)"><path d="M0 -3L2.6 -1.5L2.6 1.5L0 3L-2.6 1.5L-2.6 -1.5Z" stroke="#297EA6" fill="none" stroke-width="2"></path></g><g transform="translate(463 267)"><path d="M0 -7L6.1 -3.5L6.1 3.5L0 7L-6.1 3.5L-6.1 -3.5Z" stroke="#297EA6" fill="none" stroke-width="2"></path></g><g transform="translate(482 352)"><path d="M0 -10L8.7 -5L8.7 5L0 10L-8.7 5L-8.7 -5Z" stroke="#297EA6" fill="none" stroke-width="2"></path></g><g transform="translate(667 152)"><path d="M0 -11L9.5 -5.5L9.5 5.5L0 11L-9.5 5.5L-9.5 -5.5Z" stroke="#297EA6" fill="none" stroke-width="2"></path></g><g transform="translate(262 445)"><path d="M0 -3L2.6 -1.5L2.6 1.5L0 3L-2.6 1.5L-2.6 -1.5Z" stroke="#297EA6" fill="none" stroke-width="2"></path></g><g transform="translate(176 193)"><path d="M0 -4L3.5 -2L3.5 2L0 4L-3.5 2L-3.5 -2Z" stroke="#297EA6" fill="none" stroke-width="2"></path></g><g transform="translate(819 338)"><path d="M0 -2L1.7 -1L1.7 1L0 2L-1.7 1L-1.7 -1Z" stroke="#297EA6" fill="none" stroke-width="2"></path></g><g transform="translate(759 346)"><path d="M0 -8L6.9 -4L6.9 4L0 8L-6.9 4L-6.9 -4Z" stroke="#297EA6" fill="none" stroke-width="2"></path></g><g transform="translate(920 253)"><path d="M0 -6L5.2 -3L5.2 3L0 6L-5.2 3L-5.2 -3Z" stroke="#297EA6" fill="none" stroke-width="2"></path></g><g transform="translate(222 275)"><path d="M0 -10L8.7 -5L8.7 5L0 10L-8.7 5L-8.7 -5Z" stroke="#297EA6" fill="none" stroke-width="2"></path></g><g transform="translate(526 228)"><path d="M0 -5L4.3 -2.5L4.3 2.5L0 5L-4.3 2.5L-4.3 -2.5Z" stroke="#297EA6" fill="none" stroke-width="2"></path></g><g transform="translate(792 104)"><path d="M0 -10L8.7 -5L8.7 5L0 10L-8.7 5L-8.7 -5Z" stroke="#297EA6" fill="none" stroke-width="2"></path></g><g transform="translate(687 123)"><path d="M0 -6L5.2 -3L5.2 3L0 6L-5.2 3L-5.2 -3Z" stroke="#297EA6" fill="none" stroke-width="2"></path></g><g transform="translate(315 457)"><path d="M0 -10L8.7 -5L8.7 5L0 10L-8.7 5L-8.7 -5Z" stroke="#297EA6" fill="none" stroke-width="2"></path></g><g transform="translate(197 327)"><path d="M0 -5L4.3 -2.5L4.3 2.5L0 5L-4.3 2.5L-4.3 -2.5Z" stroke="#297EA6" fill="none" stroke-width="2"></path></g><g transform="translate(223 435)"><path d="M0 -11L9.5 -5.5L9.5 5.5L0 11L-9.5 5.5L-9.5 -5.5Z" stroke="#297EA6" fill="none" stroke-width="2"></path></g><g transform="translate(505 52)"><path d="M0 -4L3.5 -2L3.5 2L0 4L-3.5 2L-3.5 -2Z" stroke="#297EA6" fill="none" stroke-width="2"></path></g><g transform="translate(814 123)"><path d="M0 -8L6.9 -4L6.9 4L0 8L-6.9 4L-6.9 -4Z" stroke="#297EA6" fill="none" stroke-width="2"></path></g><g transform="translate(678 334)"><path d="M0 -7L6.1 -3.5L6.1 3.5L0 7L-6.1 3.5L-6.1 -3.5Z" stroke="#297EA6" fill="none" stroke-width="2"></path></g><g transform="translate(195 120)"><path d="M0 -2L1.7 -1L1.7 1L0 2L-1.7 1L-1.7 -1Z" stroke="#297EA6" fill="none" stroke-width="2"></path></g><g transform="translate(84 290)"><path d="M0 -6L5.2 -3L5.2 3L0 6L-5.2 3L-5.2 -3Z" stroke="#297EA6" fill="none" stroke-width="2"></path></g><g transform="translate(288 535)"><path d="M0 -10L8.7 -5L8.7 5L0 10L-8.7 5L-8.7 -5Z" stroke="#297EA6" fill="none" stroke-width="2"></path></g><g transform="translate(899 409)"><path d="M0 -8L6.9 -4L6.9 4L0 8L-6.9 4L-6.9 -4Z" stroke="#297EA6" fill="none" stroke-width="2"></path></g><g transform="translate(667 88)"><path d="M0 -9L7.8 -4.5L7.8 4.5L0 9L-7.8 4.5L-7.8 -4.5Z" stroke="#297EA6" fill="none" stroke-width="2"></path></g><g transform="translate(264 159)"><path d="M0 -6L5.2 -3L5.2 3L0 6L-5.2 3L-5.2 -3Z" stroke="#297EA6" fill="none" stroke-width="2"></path></g><g transform="translate(839 222)"><path d="M0 -7L6.1 -3.5L6.1 3.5L0 7L-6.1 3.5L-6.1 -3.5Z" stroke="#297EA6" fill="none" stroke-width="2"></path></g><g transform="translate(506 401)"><path d="M0 -9L7.8 -4.5L7.8 4.5L0 9L-7.8 4.5L-7.8 -4.5Z" stroke="#297EA6" fill="none" stroke-width="2"></path></g><g transform="translate(140 516)"><path d="M0 -11L9.5 -5.5L9.5 5.5L0 11L-9.5 5.5L-9.5 -5.5Z" stroke="#297EA6" fill="none" stroke-width="2"></path></g><g transform="translate(686 45)"><path d="M0 -7L6.1 -3.5L6.1 3.5L0 7L-6.1 3.5L-6.1 -3.5Z" stroke="#297EA6" fill="none" stroke-width="2"></path></g><g transform="translate(409 7)"><path d="M0 -1L0.9 -0.5L0.9 0.5L0 1L-0.9 0.5L-0.9 -0.5Z" stroke="#297EA6" fill="none" stroke-width="2"></path></g><g transform="translate(358 142)"><path d="M0 -7L6.1 -3.5L6.1 3.5L0 7L-6.1 3.5L-6.1 -3.5Z" stroke="#297EA6" fill="none" stroke-width="2"></path></g><g transform="translate(848 3)"><path d="M0 -3L2.6 -1.5L2.6 1.5L0 3L-2.6 1.5L-2.6 -1.5Z" stroke="#297EA6" fill="none" stroke-width="2"></path></g><g transform="translate(925 113)"><path d="M0 -7L6.1 -3.5L6.1 3.5L0 7L-6.1 3.5L-6.1 -3.5Z" stroke="#297EA6" fill="none" stroke-width="2"></path></g><g transform="translate(487 241)"><path d="M0 -8L6.9 -4L6.9 4L0 8L-6.9 4L-6.9 -4Z" stroke="#297EA6" fill="none" stroke-width="2"></path></g><g transform="translate(322 313)"><path d="M0 -8L6.9 -4L6.9 4L0 8L-6.9 4L-6.9 -4Z" stroke="#297EA6" fill="none" stroke-width="2"></path></g><g transform="translate(307 11)"><path d="M0 -11L9.5 -5.5L9.5 5.5L0 11L-9.5 5.5L-9.5 -5.5Z" stroke="#297EA6" fill="none" stroke-width="2"></path></g><g transform="translate(300 146)"><path d="M0 -11L9.5 -5.5L9.5 5.5L0 11L-9.5 5.5L-9.5 -5.5Z" stroke="#297EA6" fill="none" stroke-width="2"></path></g><g transform="translate(924 48)"><path d="M0 -11L9.5 -5.5L9.5 5.5L0 11L-9.5 5.5L-9.5 -5.5Z" stroke="#297EA6" fill="none" stroke-width="2"></path></g><g transform="translate(90 247)"><path d="M0 -9L7.8 -4.5L7.8 4.5L0 9L-7.8 4.5L-7.8 -4.5Z" stroke="#297EA6" fill="none" stroke-width="2"></path></g><g transform="translate(77 18)"><path d="M0 -2L1.7 -1L1.7 1L0 2L-1.7 1L-1.7 -1Z" stroke="#297EA6" fill="none" stroke-width="2"></path></g><g transform="translate(718 538)"><path d="M0 -6L5.2 -3L5.2 3L0 6L-5.2 3L-5.2 -3Z" stroke="#297EA6" fill="none" stroke-width="2"></path></g><g transform="translate(755 422)"><path d="M0 -5L4.3 -2.5L4.3 2.5L0 5L-4.3 2.5L-4.3 -2.5Z" stroke="#297EA6" fill="none" stroke-width="2"></path></g><g transform="translate(774 218)"><path d="M0 -10L8.7 -5L8.7 5L0 10L-8.7 5L-8.7 -5Z" stroke="#297EA6" fill="none" stroke-width="2"></path></g><g transform="translate(215 196)"><path d="M0 -9L7.8 -4.5L7.8 4.5L0 9L-7.8 4.5L-7.8 -4.5Z" stroke="#297EA6" fill="none" stroke-width="2"></path></g><g transform="translate(234 155)"><path d="M0 -10L8.7 -5L8.7 5L0 10L-8.7 5L-8.7 -5Z" stroke="#297EA6" fill="none" stroke-width="2"></path></g><g transform="translate(499 264)"><path d="M0 -9L7.8 -4.5L7.8 4.5L0 9L-7.8 4.5L-7.8 -4.5Z" stroke="#297EA6" fill="none" stroke-width="2"></path></g><g transform="translate(275 470)"><path d="M0 -1L0.9 -0.5L0.9 0.5L0 1L-0.9 0.5L-0.9 -0.5Z" stroke="#297EA6" fill="none" stroke-width="2"></path></g><g transform="translate(124 24)"><path d="M0 -8L6.9 -4L6.9 4L0 8L-6.9 4L-6.9 -4Z" stroke="#297EA6" fill="none" stroke-width="2"></path></g><g transform="translate(487 19)"><path d="M0 -11L9.5 -5.5L9.5 5.5L0 11L-9.5 5.5L-9.5 -5.5Z" stroke="#297EA6" fill="none" stroke-width="2"></path></g><g transform="translate(930 215)"><path d="M0 -7L6.1 -3.5L6.1 3.5L0 7L-6.1 3.5L-6.1 -3.5Z" stroke="#297EA6" fill="none" stroke-width="2"></path></g><g transform="translate(861 129)"><path d="M0 -2L1.7 -1L1.7 1L0 2L-1.7 1L-1.7 -1Z" stroke="#297EA6" fill="none" stroke-width="2"></path></g><g transform="translate(573 45)"><path d="M0 -5L4.3 -2.5L4.3 2.5L0 5L-4.3 2.5L-4.3 -2.5Z" stroke="#297EA6" fill="none" stroke-width="2"></path></g><g transform="translate(436 183)"><path d="M0 -11L9.5 -5.5L9.5 5.5L0 11L-9.5 5.5L-9.5 -5.5Z" stroke="#297EA6" fill="none" stroke-width="2"></path></g><g transform="translate(300 384)"><path d="M0 -8L6.9 -4L6.9 4L0 8L-6.9 4L-6.9 -4Z" stroke="#297EA6" fill="none" stroke-width="2"></path></g><g transform="translate(75 423)"><path d="M0 -2L1.7 -1L1.7 1L0 2L-1.7 1L-1.7 -1Z" stroke="#297EA6" fill="none" stroke-width="2"></path></g><g transform="translate(593 483)"><path d="M0 -8L6.9 -4L6.9 4L0 8L-6.9 4L-6.9 -4Z" stroke="#297EA6" fill="none" stroke-width="2"></path></g><g transform="translate(238 232)"><path d="M0 -11L9.5 -5.5L9.5 5.5L0 11L-9.5 5.5L-9.5 -5.5Z" stroke="#297EA6" fill="none" stroke-width="2"></path></g><g transform="translate(747 6)"><path d="M0 -7L6.1 -3.5L6.1 3.5L0 7L-6.1 3.5L-6.1 -3.5Z" stroke="#297EA6" fill="none" stroke-width="2"></path></g><g transform="translate(443 237)"><path d="M0 -2L1.7 -1L1.7 1L0 2L-1.7 1L-1.7 -1Z" stroke="#297EA6" fill="none" stroke-width="2"></path></g><g transform="translate(132 331)"><path d="M0 -5L4.3 -2.5L4.3 2.5L0 5L-4.3 2.5L-4.3 -2.5Z" stroke="#297EA6" fill="none" stroke-width="2"></path></g><g transform="translate(761 304)"><path d="M0 -11L9.5 -5.5L9.5 5.5L0 11L-9.5 5.5L-9.5 -5.5Z" stroke="#297EA6" fill="none" stroke-width="2"></path></g><g transform="translate(867 35)"><path d="M0 -8L6.9 -4L6.9 4L0 8L-6.9 4L-6.9 -4Z" stroke="#297EA6" fill="none" stroke-width="2"></path></g><g transform="translate(109 397)"><path d="M0 -1L0.9 -0.5L0.9 0.5L0 1L-0.9 0.5L-0.9 -0.5Z" stroke="#297EA6" fill="none" stroke-width="2"></path></g><g transform="translate(269 6)"><path d="M0 -8L6.9 -4L6.9 4L0 8L-6.9 4L-6.9 -4Z" stroke="#297EA6" fill="none" stroke-width="2"></path></g><g transform="translate(120 450)"><path d="M0 -7L6.1 -3.5L6.1 3.5L0 7L-6.1 3.5L-6.1 -3.5Z" stroke="#297EA6" fill="none" stroke-width="2"></path></g><g transform="translate(73 512)"><path d="M0 -4L3.5 -2L3.5 2L0 4L-3.5 2L-3.5 -2Z" stroke="#297EA6" fill="none" stroke-width="2"></path></g><g transform="translate(772 130)"><path d="M0 -1L0.9 -0.5L0.9 0.5L0 1L-0.9 0.5L-0.9 -0.5Z" stroke="#297EA6" fill="none" stroke-width="2"></path></g><g transform="translate(533 488)"><path d="M0 -5L4.3 -2.5L4.3 2.5L0 5L-4.3 2.5L-4.3 -2.5Z" stroke="#297EA6" fill="none" stroke-width="2"></path></g><g transform="translate(958 88)"><path d="M0 -2L1.7 -1L1.7 1L0 2L-1.7 1L-1.7 -1Z" stroke="#297EA6" fill="none" stroke-width="2"></path></g><g transform="translate(564 257)"><path d="M0 -6L5.2 -3L5.2 3L0 6L-5.2 3L-5.2 -3Z" stroke="#297EA6" fill="none" stroke-width="2"></path></g><g transform="translate(717 166)"><path d="M0 -9L7.8 -4.5L7.8 4.5L0 9L-7.8 4.5L-7.8 -4.5Z" stroke="#297EA6" fill="none" stroke-width="2"></path></g><g transform="translate(880 245)"><path d="M0 -6L5.2 -3L5.2 3L0 6L-5.2 3L-5.2 -3Z" stroke="#297EA6" fill="none" stroke-width="2"></path></g><g transform="translate(225 313)"><path d="M0 -8L6.9 -4L6.9 4L0 8L-6.9 4L-6.9 -4Z" stroke="#297EA6" fill="none" stroke-width="2"></path></g><g transform="translate(887 318)"><path d="M0 -2L1.7 -1L1.7 1L0 2L-1.7 1L-1.7 -1Z" stroke="#297EA6" fill="none" stroke-width="2"></path></g><g transform="translate(681 11)"><path d="M0 -6L5.2 -3L5.2 3L0 6L-5.2 3L-5.2 -3Z" stroke="#297EA6" fill="none" stroke-width="2"></path></g><g transform="translate(878 157)"><path d="M0 -9L7.8 -4.5L7.8 4.5L0 9L-7.8 4.5L-7.8 -4.5Z" stroke="#297EA6" fill="none" stroke-width="2"></path></g><g transform="translate(465 89)"><path d="M0 -7L6.1 -3.5L6.1 3.5L0 7L-6.1 3.5L-6.1 -3.5Z" stroke="#297EA6" fill="none" stroke-width="2"></path></g><g transform="translate(20 407)"><path d="M0 -1L0.9 -0.5L0.9 0.5L0 1L-0.9 0.5L-0.9 -0.5Z" stroke="#297EA6" fill="none" stroke-width="2"></path></g><g transform="translate(722 46)"><path d="M0 -6L5.2 -3L5.2 3L0 6L-5.2 3L-5.2 -3Z" stroke="#297EA6" fill="none" stroke-width="2"></path></g><g transform="translate(642 376)"><path d="M0 -3L2.6 -1.5L2.6 1.5L0 3L-2.6 1.5L-2.6 -1.5Z" stroke="#297EA6" fill="none" stroke-width="2"></path></g><g transform="translate(562 104)"><path d="M0 -7L6.1 -3.5L6.1 3.5L0 7L-6.1 3.5L-6.1 -3.5Z" stroke="#297EA6" fill="none" stroke-width="2"></path></g><g transform="translate(24 354)"><path d="M0 -3L2.6 -1.5L2.6 1.5L0 3L-2.6 1.5L-2.6 -1.5Z" stroke="#297EA6" fill="none" stroke-width="2"></path></g><g transform="translate(896 443)"><path d="M0 -4L3.5 -2L3.5 2L0 4L-3.5 2L-3.5 -2Z" stroke="#297EA6" fill="none" stroke-width="2"></path></g><g transform="translate(879 530)"><path d="M0 -6L5.2 -3L5.2 3L0 6L-5.2 3L-5.2 -3Z" stroke="#297EA6" fill="none" stroke-width="2"></path></g><g transform="translate(316 360)"><path d="M0 -10L8.7 -5L8.7 5L0 10L-8.7 5L-8.7 -5Z" stroke="#297EA6" fill="none" stroke-width="2"></path></g><g transform="translate(434 90)"><path d="M0 -3L2.6 -1.5L2.6 1.5L0 3L-2.6 1.5L-2.6 -1.5Z" stroke="#297EA6" fill="none" stroke-width="2"></path></g><g transform="translate(638 479)"><path d="M0 -8L6.9 -4L6.9 4L0 8L-6.9 4L-6.9 -4Z" stroke="#297EA6" fill="none" stroke-width="2"></path></g><g transform="translate(157 290)"><path d="M0 -2L1.7 -1L1.7 1L0 2L-1.7 1L-1.7 -1Z" stroke="#297EA6" fill="none" stroke-width="2"></path></g><g transform="translate(280 283)"><path d="M0 -1L0.9 -0.5L0.9 0.5L0 1L-0.9 0.5L-0.9 -0.5Z" stroke="#297EA6" fill="none" stroke-width="2"></path></g><g transform="translate(946 471)"><path d="M0 -5L4.3 -2.5L4.3 2.5L0 5L-4.3 2.5L-4.3 -2.5Z" stroke="#297EA6" fill="none" stroke-width="2"></path></g><g transform="translate(830 538)"><path d="M0 -1L0.9 -0.5L0.9 0.5L0 1L-0.9 0.5L-0.9 -0.5Z" stroke="#297EA6" fill="none" stroke-width="2"></path></g><g transform="translate(634 47)"><path d="M0 -4L3.5 -2L3.5 2L0 4L-3.5 2L-3.5 -2Z" stroke="#297EA6" fill="none" stroke-width="2"></path></g><g transform="translate(613 169)"><path d="M0 -6L5.2 -3L5.2 3L0 6L-5.2 3L-5.2 -3Z" stroke="#297EA6" fill="none" stroke-width="2"></path></g><g transform="translate(166 410)"><path d="M0 -6L5.2 -3L5.2 3L0 6L-5.2 3L-5.2 -3Z" stroke="#297EA6" fill="none" stroke-width="2"></path></g><g transform="translate(957 256)"><path d="M0 -8L6.9 -4L6.9 4L0 8L-6.9 4L-6.9 -4Z" stroke="#297EA6" fill="none" stroke-width="2"></path></g><g transform="translate(190 29)"><path d="M0 -7L6.1 -3.5L6.1 3.5L0 7L-6.1 3.5L-6.1 -3.5Z" stroke="#297EA6" fill="none" stroke-width="2"></path></g><g transform="translate(622 100)"><path d="M0 -1L0.9 -0.5L0.9 0.5L0 1L-0.9 0.5L-0.9 -0.5Z" stroke="#297EA6" fill="none" stroke-width="2"></path></g><g transform="translate(444 292)"><path d="M0 -11L9.5 -5.5L9.5 5.5L0 11L-9.5 5.5L-9.5 -5.5Z" stroke="#297EA6" fill="none" stroke-width="2"></path></g><g transform="translate(53 56)"><path d="M0 -6L5.2 -3L5.2 3L0 6L-5.2 3L-5.2 -3Z" stroke="#297EA6" fill="none" stroke-width="2"></path></g><g transform="translate(479 178)"><path d="M0 -1L0.9 -0.5L0.9 0.5L0 1L-0.9 0.5L-0.9 -0.5Z" stroke="#297EA6" fill="none" stroke-width="2"></path></g><g transform="translate(46 340)"><path d="M0 -7L6.1 -3.5L6.1 3.5L0 7L-6.1 3.5L-6.1 -3.5Z" stroke="#297EA6" fill="none" stroke-width="2"></path></g><g transform="translate(751 385)"><path d="M0 -1L0.9 -0.5L0.9 0.5L0 1L-0.9 0.5L-0.9 -0.5Z" stroke="#297EA6" fill="none" stroke-width="2"></path></g><g transform="translate(637 230)"><path d="M0 -4L3.5 -2L3.5 2L0 4L-3.5 2L-3.5 -2Z" stroke="#297EA6" fill="none" stroke-width="2"></path></g><g transform="translate(215 47)"><path d="M0 -2L1.7 -1L1.7 1L0 2L-1.7 1L-1.7 -1Z" stroke="#297EA6" fill="none" stroke-width="2"></path></g><g transform="translate(812 368)"><path d="M0 -3L2.6 -1.5L2.6 1.5L0 3L-2.6 1.5L-2.6 -1.5Z" stroke="#297EA6" fill="none" stroke-width="2"></path></g><g transform="translate(189 265)"><path d="M0 -7L6.1 -3.5L6.1 3.5L0 7L-6.1 3.5L-6.1 -3.5Z" stroke="#297EA6" fill="none" stroke-width="2"></path></g><g transform="translate(52 95)"><path d="M0 -11L9.5 -5.5L9.5 5.5L0 11L-9.5 5.5L-9.5 -5.5Z" stroke="#297EA6" fill="none" stroke-width="2"></path></g><g transform="translate(475 497)"><path d="M0 -6L5.2 -3L5.2 3L0 6L-5.2 3L-5.2 -3Z" stroke="#297EA6" fill="none" stroke-width="2"></path></g><g transform="translate(685 537)"><path d="M0 -10L8.7 -5L8.7 5L0 10L-8.7 5L-8.7 -5Z" stroke="#297EA6" fill="none" stroke-width="2"></path></g><g transform="translate(103 423)"><path d="M0 -1L0.9 -0.5L0.9 0.5L0 1L-0.9 0.5L-0.9 -0.5Z" stroke="#297EA6" fill="none" stroke-width="2"></path></g><g transform="translate(320 517)"><path d="M0 -6L5.2 -3L5.2 3L0 6L-5.2 3L-5.2 -3Z" stroke="#297EA6" fill="none" stroke-width="2"></path></g><g transform="translate(890 65)"><path d="M0 -7L6.1 -3.5L6.1 3.5L0 7L-6.1 3.5L-6.1 -3.5Z" stroke="#297EA6" fill="none" stroke-width="2"></path></g><g transform="translate(364 406)"><path d="M0 -5L4.3 -2.5L4.3 2.5L0 5L-4.3 2.5L-4.3 -2.5Z" stroke="#297EA6" fill="none" stroke-width="2"></path></g><g transform="translate(882 479)"><path d="M0 -5L4.3 -2.5L4.3 2.5L0 5L-4.3 2.5L-4.3 -2.5Z" stroke="#297EA6" fill="none" stroke-width="2"></path></g><g transform="translate(802 160)"><path d="M0 -7L6.1 -3.5L6.1 3.5L0 7L-6.1 3.5L-6.1 -3.5Z" stroke="#297EA6" fill="none" stroke-width="2"></path></g><g transform="translate(629 144)"><path d="M0 -9L7.8 -4.5L7.8 4.5L0 9L-7.8 4.5L-7.8 -4.5Z" stroke="#297EA6" fill="none" stroke-width="2"></path></g><g transform="translate(137 131)"><path d="M0 -4L3.5 -2L3.5 2L0 4L-3.5 2L-3.5 -2Z" stroke="#297EA6" fill="none" stroke-width="2"></path></g><g transform="translate(262 117)"><path d="M0 -6L5.2 -3L5.2 3L0 6L-5.2 3L-5.2 -3Z" stroke="#297EA6" fill="none" stroke-width="2"></path></g><g transform="translate(803 277)"><path d="M0 -8L6.9 -4L6.9 4L0 8L-6.9 4L-6.9 -4Z" stroke="#297EA6" fill="none" stroke-width="2"></path></g><g transform="translate(275 331)"><path d="M0 -2L1.7 -1L1.7 1L0 2L-1.7 1L-1.7 -1Z" stroke="#297EA6" fill="none" stroke-width="2"></path></g><g transform="translate(840 169)"><path d="M0 -9L7.8 -4.5L7.8 4.5L0 9L-7.8 4.5L-7.8 -4.5Z" stroke="#297EA6" fill="none" stroke-width="2"></path></g><g transform="translate(109 117)"><path d="M0 -4L3.5 -2L3.5 2L0 4L-3.5 2L-3.5 -2Z" stroke="#297EA6" fill="none" stroke-width="2"></path></g><g transform="translate(585 172)"><path d="M0 -4L3.5 -2L3.5 2L0 4L-3.5 2L-3.5 -2Z" stroke="#297EA6" fill="none" stroke-width="2"></path></g><g transform="translate(25 169)"><path d="M0 -9L7.8 -4.5L7.8 4.5L0 9L-7.8 4.5L-7.8 -4.5Z" stroke="#297EA6" fill="none" stroke-width="2"></path></g><g transform="translate(90 149)"><path d="M0 -5L4.3 -2.5L4.3 2.5L0 5L-4.3 2.5L-4.3 -2.5Z" stroke="#297EA6" fill="none" stroke-width="2"></path></g><g transform="translate(4 488)"><path d="M0 -8L6.9 -4L6.9 4L0 8L-6.9 4L-6.9 -4Z" stroke="#297EA6" fill="none" stroke-width="2"></path></g><g transform="translate(11 309)"><path d="M0 -11L9.5 -5.5L9.5 5.5L0 11L-9.5 5.5L-9.5 -5.5Z" stroke="#297EA6" fill="none" stroke-width="2"></path></g><g transform="translate(534 152)"><path d="M0 -6L5.2 -3L5.2 3L0 6L-5.2 3L-5.2 -3Z" stroke="#297EA6" fill="none" stroke-width="2"></path></g><g transform="translate(901 297)"><path d="M0 -8L6.9 -4L6.9 4L0 8L-6.9 4L-6.9 -4Z" stroke="#297EA6" fill="none" stroke-width="2"></path></g><g transform="translate(450 343)"><path d="M0 -10L8.7 -5L8.7 5L0 10L-8.7 5L-8.7 -5Z" stroke="#297EA6" fill="none" stroke-width="2"></path></g><g transform="translate(238 372)"><path d="M0 -10L8.7 -5L8.7 5L0 10L-8.7 5L-8.7 -5Z" stroke="#297EA6" fill="none" stroke-width="2"></path></g><g transform="translate(347 452)"><path d="M0 -10L8.7 -5L8.7 5L0 10L-8.7 5L-8.7 -5Z" stroke="#297EA6" fill="none" stroke-width="2"></path></g><g transform="translate(593 392)"><path d="M0 -1L0.9 -0.5L0.9 0.5L0 1L-0.9 0.5L-0.9 -0.5Z" stroke="#297EA6" fill="none" stroke-width="2"></path></g><g transform="translate(260 498)"><path d="M0 -4L3.5 -2L3.5 2L0 4L-3.5 2L-3.5 -2Z" stroke="#297EA6" fill="none" stroke-width="2"></path></g><g transform="translate(290 172)"><path d="M0 -9L7.8 -4.5L7.8 4.5L0 9L-7.8 4.5L-7.8 -4.5Z" stroke="#297EA6" fill="none" stroke-width="2"></path></g><g transform="translate(163 138)"><path d="M0 -2L1.7 -1L1.7 1L0 2L-1.7 1L-1.7 -1Z" stroke="#297EA6" fill="none" stroke-width="2"></path></g><g transform="translate(501 292)"><path d="M0 -11L9.5 -5.5L9.5 5.5L0 11L-9.5 5.5L-9.5 -5.5Z" stroke="#297EA6" fill="none" stroke-width="2"></path></g><g transform="translate(703 267)"><path d="M0 -2L1.7 -1L1.7 1L0 2L-1.7 1L-1.7 -1Z" stroke="#297EA6" fill="none" stroke-width="2"></path></g><g transform="translate(586 235)"><path d="M0 -11L9.5 -5.5L9.5 5.5L0 11L-9.5 5.5L-9.5 -5.5Z" stroke="#297EA6" fill="none" stroke-width="2"></path></g><g transform="translate(246 51)"><path d="M0 -4L3.5 -2L3.5 2L0 4L-3.5 2L-3.5 -2Z" stroke="#297EA6" fill="none" stroke-width="2"></path></g><g transform="translate(653 341)"><path d="M0 -9L7.8 -4.5L7.8 4.5L0 9L-7.8 4.5L-7.8 -4.5Z" stroke="#297EA6" fill="none" stroke-width="2"></path></g><g transform="translate(561 509)"><path d="M0 -8L6.9 -4L6.9 4L0 8L-6.9 4L-6.9 -4Z" stroke="#297EA6" fill="none" stroke-width="2"></path></g><g transform="translate(714 307)"><path d="M0 -11L9.5 -5.5L9.5 5.5L0 11L-9.5 5.5L-9.5 -5.5Z" stroke="#297EA6" fill="none" stroke-width="2"></path></g><g transform="translate(284 69)"><path d="M0 -6L5.2 -3L5.2 3L0 6L-5.2 3L-5.2 -3Z" stroke="#297EA6" fill="none" stroke-width="2"></path></g><g transform="translate(471 464)"><path d="M0 -5L4.3 -2.5L4.3 2.5L0 5L-4.3 2.5L-4.3 -2.5Z" stroke="#297EA6" fill="none" stroke-width="2"></path></g><g transform="translate(149 200)"><path d="M0 -4L3.5 -2L3.5 2L0 4L-3.5 2L-3.5 -2Z" stroke="#297EA6" fill="none" stroke-width="2"></path></g><g transform="translate(754 499)"><path d="M0 -6L5.2 -3L5.2 3L0 6L-5.2 3L-5.2 -3Z" stroke="#297EA6" fill="none" stroke-width="2"></path></g><g transform="translate(760 33)"><path d="M0 -11L9.5 -5.5L9.5 5.5L0 11L-9.5 5.5L-9.5 -5.5Z" stroke="#297EA6" fill="none" stroke-width="2"></path></g><g transform="translate(521 332)"><path d="M0 -11L9.5 -5.5L9.5 5.5L0 11L-9.5 5.5L-9.5 -5.5Z" stroke="#297EA6" fill="none" stroke-width="2"></path></g><g transform="translate(364 355)"><path d="M0 -6L5.2 -3L5.2 3L0 6L-5.2 3L-5.2 -3Z" stroke="#297EA6" fill="none" stroke-width="2"></path></g><g transform="translate(599 538)"><path d="M0 -4L3.5 -2L3.5 2L0 4L-3.5 2L-3.5 -2Z" stroke="#297EA6" fill="none" stroke-width="2"></path></g><g transform="translate(112 270)"><path d="M0 -11L9.5 -5.5L9.5 5.5L0 11L-9.5 5.5L-9.5 -5.5Z" stroke="#297EA6" fill="none" stroke-width="2"></path></g><g transform="translate(422 347)"><path d="M0 -11L9.5 -5.5L9.5 5.5L0 11L-9.5 5.5L-9.5 -5.5Z" stroke="#297EA6" fill="none" stroke-width="2"></path></g><g transform="translate(313 426)"><path d="M0 -1L0.9 -0.5L0.9 0.5L0 1L-0.9 0.5L-0.9 -0.5Z" stroke="#297EA6" fill="none" stroke-width="2"></path></g><g transform="translate(230 469)"><path d="M0 -2L1.7 -1L1.7 1L0 2L-1.7 1L-1.7 -1Z" stroke="#297EA6" fill="none" stroke-width="2"></path></g><g transform="translate(420 62)"><path d="M0 -10L8.7 -5L8.7 5L0 10L-8.7 5L-8.7 -5Z" stroke="#297EA6" fill="none" stroke-width="2"></path></g><g transform="translate(618 457)"><path d="M0 -1L0.9 -0.5L0.9 0.5L0 1L-0.9 0.5L-0.9 -0.5Z" stroke="#297EA6" fill="none" stroke-width="2"></path></g><g transform="translate(447 478)"><path d="M0 -7L6.1 -3.5L6.1 3.5L0 7L-6.1 3.5L-6.1 -3.5Z" stroke="#297EA6" fill="none" stroke-width="2"></path></g><g transform="translate(493 144)"><path d="M0 -5L4.3 -2.5L4.3 2.5L0 5L-4.3 2.5L-4.3 -2.5Z" stroke="#297EA6" fill="none" stroke-width="2"></path></g><g transform="translate(588 295)"><path d="M0 -2L1.7 -1L1.7 1L0 2L-1.7 1L-1.7 -1Z" stroke="#297EA6" fill="none" stroke-width="2"></path></g><g transform="translate(684 196)"><path d="M0 -3L2.6 -1.5L2.6 1.5L0 3L-2.6 1.5L-2.6 -1.5Z" stroke="#297EA6" fill="none" stroke-width="2"></path></g><g transform="translate(869 444)"><path d="M0 -10L8.7 -5L8.7 5L0 10L-8.7 5L-8.7 -5Z" stroke="#297EA6" fill="none" stroke-width="2"></path></g><g transform="translate(592 99)"><path d="M0 -3L2.6 -1.5L2.6 1.5L0 3L-2.6 1.5L-2.6 -1.5Z" stroke="#297EA6" fill="none" stroke-width="2"></path></g><g transform="translate(650 196)"><path d="M0 -11L9.5 -5.5L9.5 5.5L0 11L-9.5 5.5L-9.5 -5.5Z" stroke="#297EA6" fill="none" stroke-width="2"></path></g><g transform="translate(197 447)"><path d="M0 -8L6.9 -4L6.9 4L0 8L-6.9 4L-6.9 -4Z" stroke="#297EA6" fill="none" stroke-width="2"></path></g><g transform="translate(123 165)"><path d="M0 -7L6.1 -3.5L6.1 3.5L0 7L-6.1 3.5L-6.1 -3.5Z" stroke="#297EA6" fill="none" stroke-width="2"></path></g><g transform="translate(247 201)"><path d="M0 -7L6.1 -3.5L6.1 3.5L0 7L-6.1 3.5L-6.1 -3.5Z" stroke="#297EA6" fill="none" stroke-width="2"></path></g><g transform="translate(396 72)"><path d="M0 -5L4.3 -2.5L4.3 2.5L0 5L-4.3 2.5L-4.3 -2.5Z" stroke="#297EA6" fill="none" stroke-width="2"></path></g><g transform="translate(724 443)"><path d="M0 -9L7.8 -4.5L7.8 4.5L0 9L-7.8 4.5L-7.8 -4.5Z" stroke="#297EA6" fill="none" stroke-width="2"></path></g><g transform="translate(313 484)"><path d="M0 -11L9.5 -5.5L9.5 5.5L0 11L-9.5 5.5L-9.5 -5.5Z" stroke="#297EA6" fill="none" stroke-width="2"></path></g><g transform="translate(555 434)"><path d="M0 -9L7.8 -4.5L7.8 4.5L0 9L-7.8 4.5L-7.8 -4.5Z" stroke="#297EA6" fill="none" stroke-width="2"></path></g><g transform="translate(30 435)"><path d="M0 -1L0.9 -0.5L0.9 0.5L0 1L-0.9 0.5L-0.9 -0.5Z" stroke="#297EA6" fill="none" stroke-width="2"></path></g><g transform="translate(477 112)"><path d="M0 -1L0.9 -0.5L0.9 0.5L0 1L-0.9 0.5L-0.9 -0.5Z" stroke="#297EA6" fill="none" stroke-width="2"></path></g><g transform="translate(40 474)"><path d="M0 -4L3.5 -2L3.5 2L0 4L-3.5 2L-3.5 -2Z" stroke="#297EA6" fill="none" stroke-width="2"></path></g><g transform="translate(544 350)"><path d="M0 -8L6.9 -4L6.9 4L0 8L-6.9 4L-6.9 -4Z" stroke="#297EA6" fill="none" stroke-width="2"></path></g><g transform="translate(540 65)"><path d="M0 -5L4.3 -2.5L4.3 2.5L0 5L-4.3 2.5L-4.3 -2.5Z" stroke="#297EA6" fill="none" stroke-width="2"></path></g><g transform="translate(533 179)"><path d="M0 -4L3.5 -2L3.5 2L0 4L-3.5 2L-3.5 -2Z" stroke="#297EA6" fill="none" stroke-width="2"></path></g><g transform="translate(428 121)"><path d="M0 -9L7.8 -4.5L7.8 4.5L0 9L-7.8 4.5L-7.8 -4.5Z" stroke="#297EA6" fill="none" stroke-width="2"></path></g><g transform="translate(553 468)"><path d="M0 -9L7.8 -4.5L7.8 4.5L0 9L-7.8 4.5L-7.8 -4.5Z" stroke="#297EA6" fill="none" stroke-width="2"></path></g><g transform="translate(257 306)"><path d="M0 -10L8.7 -5L8.7 5L0 10L-8.7 5L-8.7 -5Z" stroke="#297EA6" fill="none" stroke-width="2"></path></g><g transform="translate(185 299)"><path d="M0 -9L7.8 -4.5L7.8 4.5L0 9L-7.8 4.5L-7.8 -4.5Z" stroke="#297EA6" fill="none" stroke-width="2"></path></g><g transform="translate(352 229)"><path d="M0 -7L6.1 -3.5L6.1 3.5L0 7L-6.1 3.5L-6.1 -3.5Z" stroke="#297EA6" fill="none" stroke-width="2"></path></g><g transform="translate(914 13)"><path d="M0 -3L2.6 -1.5L2.6 1.5L0 3L-2.6 1.5L-2.6 -1.5Z" stroke="#297EA6" fill="none" stroke-width="2"></path></g><g transform="translate(320 44)"><path d="M0 -5L4.3 -2.5L4.3 2.5L0 5L-4.3 2.5L-4.3 -2.5Z" stroke="#297EA6" fill="none" stroke-width="2"></path></g><g transform="translate(396 410)"><path d="M0 -3L2.6 -1.5L2.6 1.5L0 3L-2.6 1.5L-2.6 -1.5Z" stroke="#297EA6" fill="none" stroke-width="2"></path></g><g transform="translate(844 507)"><path d="M0 -10L8.7 -5L8.7 5L0 10L-8.7 5L-8.7 -5Z" stroke="#297EA6" fill="none" stroke-width="2"></path></g><g transform="translate(496 534)"><path d="M0 -1L0.9 -0.5L0.9 0.5L0 1L-0.9 0.5L-0.9 -0.5Z" stroke="#297EA6" fill="none" stroke-width="2"></path></g><g transform="translate(10 65)"><path d="M0 -5L4.3 -2.5L4.3 2.5L0 5L-4.3 2.5L-4.3 -2.5Z" stroke="#297EA6" fill="none" stroke-width="2"></path></g><g transform="translate(665 299)"><path d="M0 -10L8.7 -5L8.7 5L0 10L-8.7 5L-8.7 -5Z" stroke="#297EA6" fill="none" stroke-width="2"></path></g><g transform="translate(163 371)"><path d="M0 -11L9.5 -5.5L9.5 5.5L0 11L-9.5 5.5L-9.5 -5.5Z" stroke="#297EA6" fill="none" stroke-width="2"></path></g><g transform="translate(99 81)"><path d="M0 -8L6.9 -4L6.9 4L0 8L-6.9 4L-6.9 -4Z" stroke="#297EA6" fill="none" stroke-width="2"></path></g><g transform="translate(745 108)"><path d="M0 -4L3.5 -2L3.5 2L0 4L-3.5 2L-3.5 -2Z" stroke="#297EA6" fill="none" stroke-width="2"></path></g><g transform="translate(710 240)"><path d="M0 -6L5.2 -3L5.2 3L0 6L-5.2 3L-5.2 -3Z" stroke="#297EA6" fill="none" stroke-width="2"></path></g><g transform="translate(100 526)"><path d="M0 -5L4.3 -2.5L4.3 2.5L0 5L-4.3 2.5L-4.3 -2.5Z" stroke="#297EA6" fill="none" stroke-width="2"></path></g><g transform="translate(935 152)"><path d="M0 -8L6.9 -4L6.9 4L0 8L-6.9 4L-6.9 -4Z" stroke="#297EA6" fill="none" stroke-width="2"></path></g><g transform="translate(783 259)"><path d="M0 -5L4.3 -2.5L4.3 2.5L0 5L-4.3 2.5L-4.3 -2.5Z" stroke="#297EA6" fill="none" stroke-width="2"></path></g><g transform="translate(748 140)"><path d="M0 -6L5.2 -3L5.2 3L0 6L-5.2 3L-5.2 -3Z" stroke="#297EA6" fill="none" stroke-width="2"></path></g><g transform="translate(876 283)"><path d="M0 -8L6.9 -4L6.9 4L0 8L-6.9 4L-6.9 -4Z" stroke="#297EA6" fill="none" stroke-width="2"></path></g><g transform="translate(953 537)"><path d="M0 -9L7.8 -4.5L7.8 4.5L0 9L-7.8 4.5L-7.8 -4.5Z" stroke="#297EA6" fill="none" stroke-width="2"></path></g><g transform="translate(852 407)"><path d="M0 -3L2.6 -1.5L2.6 1.5L0 3L-2.6 1.5L-2.6 -1.5Z" stroke="#297EA6" fill="none" stroke-width="2"></path></g><g transform="translate(235 402)"><path d="M0 -8L6.9 -4L6.9 4L0 8L-6.9 4L-6.9 -4Z" stroke="#297EA6" fill="none" stroke-width="2"></path></g><g transform="translate(613 367)"><path d="M0 -3L2.6 -1.5L2.6 1.5L0 3L-2.6 1.5L-2.6 -1.5Z" stroke="#297EA6" fill="none" stroke-width="2"></path></g><g transform="translate(361 484)"><path d="M0 -1L0.9 -0.5L0.9 0.5L0 1L-0.9 0.5L-0.9 -0.5Z" stroke="#297EA6" fill="none" stroke-width="2"></path></g><g transform="translate(934 361)"><path d="M0 -2L1.7 -1L1.7 1L0 2L-1.7 1L-1.7 -1Z" stroke="#297EA6" fill="none" stroke-width="2"></path></g><g transform="translate(628 4)"><path d="M0 -6L5.2 -3L5.2 3L0 6L-5.2 3L-5.2 -3Z" stroke="#297EA6" fill="none" stroke-width="2"></path></g><g transform="translate(712 16)"><path d="M0 -7L6.1 -3.5L6.1 3.5L0 7L-6.1 3.5L-6.1 -3.5Z" stroke="#297EA6" fill="none" stroke-width="2"></path></g><g transform="translate(453 163)"><path d="M0 -3L2.6 -1.5L2.6 1.5L0 3L-2.6 1.5L-2.6 -1.5Z" stroke="#297EA6" fill="none" stroke-width="2"></path></g><g transform="translate(175 239)"><path d="M0 -1L0.9 -0.5L0.9 0.5L0 1L-0.9 0.5L-0.9 -0.5Z" stroke="#297EA6" fill="none" stroke-width="2"></path></g><g transform="translate(459 535)"><path d="M0 -8L6.9 -4L6.9 4L0 8L-6.9 4L-6.9 -4Z" stroke="#297EA6" fill="none" stroke-width="2"></path></g><g transform="translate(423 536)"><path d="M0 -1L0.9 -0.5L0.9 0.5L0 1L-0.9 0.5L-0.9 -0.5Z" stroke="#297EA6" fill="none" stroke-width="2"></path></g><g transform="translate(233 97)"><path d="M0 -1L0.9 -0.5L0.9 0.5L0 1L-0.9 0.5L-0.9 -0.5Z" stroke="#297EA6" fill="none" stroke-width="2"></path></g><g transform="translate(149 456)"><path d="M0 -11L9.5 -5.5L9.5 5.5L0 11L-9.5 5.5L-9.5 -5.5Z" stroke="#297EA6" fill="none" stroke-width="2"></path></g><g transform="translate(190 153)"><path d="M0 -9L7.8 -4.5L7.8 4.5L0 9L-7.8 4.5L-7.8 -4.5Z" stroke="#297EA6" fill="none" stroke-width="2"></path></g><g transform="translate(738 264)"><path d="M0 -4L3.5 -2L3.5 2L0 4L-3.5 2L-3.5 -2Z" stroke="#297EA6" fill="none" stroke-width="2"></path></g><g transform="translate(370 526)"><path d="M0 -5L4.3 -2.5L4.3 2.5L0 5L-4.3 2.5L-4.3 -2.5Z" stroke="#297EA6" fill="none" stroke-width="2"></path></g><g transform="translate(45 307)"><path d="M0 -8L6.9 -4L6.9 4L0 8L-6.9 4L-6.9 -4Z" stroke="#297EA6" fill="none" stroke-width="2"></path></g><g transform="translate(548 321)"><path d="M0 -6L5.2 -3L5.2 3L0 6L-5.2 3L-5.2 -3Z" stroke="#297EA6" fill="none" stroke-width="2"></path></g><g transform="translate(264 245)"><path d="M0 -11L9.5 -5.5L9.5 5.5L0 11L-9.5 5.5L-9.5 -5.5Z" stroke="#297EA6" fill="none" stroke-width="2"></path></g><g transform="translate(306 121)"><path d="M0 -2L1.7 -1L1.7 1L0 2L-1.7 1L-1.7 -1Z" stroke="#297EA6" fill="none" stroke-width="2"></path></g><g transform="translate(528 420)"><path d="M0 -9L7.8 -4.5L7.8 4.5L0 9L-7.8 4.5L-7.8 -4.5Z" stroke="#297EA6" fill="none" stroke-width="2"></path></g><g transform="translate(129 90)"><path d="M0 -1L0.9 -0.5L0.9 0.5L0 1L-0.9 0.5L-0.9 -0.5Z" stroke="#297EA6" fill="none" stroke-width="2"></path></g><g transform="translate(558 10)"><path d="M0 -1L0.9 -0.5L0.9 0.5L0 1L-0.9 0.5L-0.9 -0.5Z" stroke="#297EA6" fill="none" stroke-width="2"></path></g><g transform="translate(859 312)"><path d="M0 -5L4.3 -2.5L4.3 2.5L0 5L-4.3 2.5L-4.3 -2.5Z" stroke="#297EA6" fill="none" stroke-width="2"></path></g><g transform="translate(350 38)"><path d="M0 -9L7.8 -4.5L7.8 4.5L0 9L-7.8 4.5L-7.8 -4.5Z" stroke="#297EA6" fill="none" stroke-width="2"></path></g><g transform="translate(174 74)"><path d="M0 -1L0.9 -0.5L0.9 0.5L0 1L-0.9 0.5L-0.9 -0.5Z" stroke="#297EA6" fill="none" stroke-width="2"></path></g><g transform="translate(881 101)"><path d="M0 -1L0.9 -0.5L0.9 0.5L0 1L-0.9 0.5L-0.9 -0.5Z" stroke="#297EA6" fill="none" stroke-width="2"></path></g><g transform="translate(30 23)"><path d="M0 -6L5.2 -3L5.2 3L0 6L-5.2 3L-5.2 -3Z" stroke="#297EA6" fill="none" stroke-width="2"></path></g><g transform="translate(953 284)"><path d="M0 -1L0.9 -0.5L0.9 0.5L0 1L-0.9 0.5L-0.9 -0.5Z" stroke="#297EA6" fill="none" stroke-width="2"></path></g><g transform="translate(783 495)"><path d="M0 -5L4.3 -2.5L4.3 2.5L0 5L-4.3 2.5L-4.3 -2.5Z" stroke="#297EA6" fill="none" stroke-width="2"></path></g><g transform="translate(500 205)"><path d="M0 -7L6.1 -3.5L6.1 3.5L0 7L-6.1 3.5L-6.1 -3.5Z" stroke="#297EA6" fill="none" stroke-width="2"></path></g><g transform="translate(954 188)"><path d="M0 -2L1.7 -1L1.7 1L0 2L-1.7 1L-1.7 -1Z" stroke="#297EA6" fill="none" stroke-width="2"></path></g><g transform="translate(55 251)"><path d="M0 -11L9.5 -5.5L9.5 5.5L0 11L-9.5 5.5L-9.5 -5.5Z" stroke="#297EA6" fill="none" stroke-width="2"></path></g><g transform="translate(398 221)"><path d="M0 -1L0.9 -0.5L0.9 0.5L0 1L-0.9 0.5L-0.9 -0.5Z" stroke="#297EA6" fill="none" stroke-width="2"></path></g><g transform="translate(798 462)"><path d="M0 -10L8.7 -5L8.7 5L0 10L-8.7 5L-8.7 -5Z" stroke="#297EA6" fill="none" stroke-width="2"></path></g><g transform="translate(910 534)"><path d="M0 -2L1.7 -1L1.7 1L0 2L-1.7 1L-1.7 -1Z" stroke="#297EA6" fill="none" stroke-width="2"></path></g><g transform="translate(503 498)"><path d="M0 -11L9.5 -5.5L9.5 5.5L0 11L-9.5 5.5L-9.5 -5.5Z" stroke="#297EA6" fill="none" stroke-width="2"></path></g><g transform="translate(46 209)"><path d="M0 -2L1.7 -1L1.7 1L0 2L-1.7 1L-1.7 -1Z" stroke="#297EA6" fill="none" stroke-width="2"></path></g><g transform="translate(205 378)"><path d="M0 -7L6.1 -3.5L6.1 3.5L0 7L-6.1 3.5L-6.1 -3.5Z" stroke="#297EA6" fill="none" stroke-width="2"></path></g><g transform="translate(601 28)"><path d="M0 -10L8.7 -5L8.7 5L0 10L-8.7 5L-8.7 -5Z" stroke="#297EA6" fill="none" stroke-width="2"></path></g><g transform="translate(165 13)"><path d="M0 -1L0.9 -0.5L0.9 0.5L0 1L-0.9 0.5L-0.9 -0.5Z" stroke="#297EA6" fill="none" stroke-width="2"></path></g><g transform="translate(532 535)"><path d="M0 -2L1.7 -1L1.7 1L0 2L-1.7 1L-1.7 -1Z" stroke="#297EA6" fill="none" stroke-width="2"></path></g><g transform="translate(839 285)"><path d="M0 -4L3.5 -2L3.5 2L0 4L-3.5 2L-3.5 -2Z" stroke="#297EA6" fill="none" stroke-width="2"></path></g><g transform="translate(837 357)"><path d="M0 -4L3.5 -2L3.5 2L0 4L-3.5 2L-3.5 -2Z" stroke="#297EA6" fill="none" stroke-width="2"></path></g><g transform="translate(291 444)"><path d="M0 -11L9.5 -5.5L9.5 5.5L0 11L-9.5 5.5L-9.5 -5.5Z" stroke="#297EA6" fill="none" stroke-width="2"></path></g><g transform="translate(519 130)"><path d="M0 -6L5.2 -3L5.2 3L0 6L-5.2 3L-5.2 -3Z" stroke="#297EA6" fill="none" stroke-width="2"></path></g><g transform="translate(387 34)"><path d="M0 -7L6.1 -3.5L6.1 3.5L0 7L-6.1 3.5L-6.1 -3.5Z" stroke="#297EA6" fill="none" stroke-width="2"></path></g><g transform="translate(30 131)"><path d="M0 -9L7.8 -4.5L7.8 4.5L0 9L-7.8 4.5L-7.8 -4.5Z" stroke="#297EA6" fill="none" stroke-width="2"></path></g><g transform="translate(302 244)"><path d="M0 -9L7.8 -4.5L7.8 4.5L0 9L-7.8 4.5L-7.8 -4.5Z" stroke="#297EA6" fill="none" stroke-width="2"></path></g><g transform="translate(612 421)"><path d="M0 -8L6.9 -4L6.9 4L0 8L-6.9 4L-6.9 -4Z" stroke="#297EA6" fill="none" stroke-width="2"></path></g><g transform="translate(839 90)"><path d="M0 -5L4.3 -2.5L4.3 2.5L0 5L-4.3 2.5L-4.3 -2.5Z" stroke="#297EA6" fill="none" stroke-width="2"></path></g><g transform="translate(856 68)"><path d="M0 -11L9.5 -5.5L9.5 5.5L0 11L-9.5 5.5L-9.5 -5.5Z" stroke="#297EA6" fill="none" stroke-width="2"></path></g></g></svg>