<?xml version="1.0" encoding="UTF-8" standalone="no"?>
<svg
   id="visual"
   viewBox="0 0 918.7677 417.42899"
   width="918.7677"
   height="417.42899"
   version="1.1"
   preserveAspectRatio="none"
   sodipodi:docname="videoToContent.svg"
   inkscape:version="1.1 (c68e22c387, 2021-05-23)"
   xmlns:inkscape="http://www.inkscape.org/namespaces/inkscape"
   xmlns:sodipodi="http://sodipodi.sourceforge.net/DTD/sodipodi-0.dtd"
   xmlns="http://www.w3.org/2000/svg"
   xmlns:svg="http://www.w3.org/2000/svg">
  <defs
     id="defs17" />
  <sodipodi:namedview
     id="namedview15"
     pagecolor="#ffffff"
     bordercolor="#666666"
     borderopacity="1.0"
     inkscape:pageshadow="2"
     inkscape:pageopacity="0.0"
     inkscape:pagecheckerboard="0"
     showgrid="false"
     fit-margin-top="0"
     fit-margin-left="0"
     fit-margin-right="0"
     fit-margin-bottom="0"
     inkscape:zoom="4.4266666"
     inkscape:cx="81.438254"
     inkscape:cy="54.103916"
     inkscape:window-width="1528"
     inkscape:window-height="836"
     inkscape:window-x="72"
     inkscape:window-y="27"
     inkscape:window-maximized="1"
     inkscape:current-layer="visual" />
  <path
     d="m -1.6309379,15.45482 24.4259469,2.37705 c 24.455185,2.28046 73.307082,7.03457 122.320841,10.48121 49.09362,3.56912 98.21077,5.90148 145.11149,16.71504 46.82084,10.69108 91.28688,29.93408 137.08437,44.0059 45.87735,14.1943 92.94777,23.28814 139.32219,35.84037 46.2653,12.52634 91.72548,28.48519 140.70999,32.02842 49.12289,3.47253 101.63174,-5.39985 148.59094,5.22052 46.85007,10.59449 88.04137,40.65586 108.60778,55.78313 l 20.59564,15.03068 -55.84638,184.49184 -23.46107,-5.56461 C 882.36974,406.29976 835.44762,395.17054 788.74374,384.09308 741.93074,372.98975 695.44509,361.96406 648.63211,350.86072 601.92822,339.78326 555.00609,328.65405 508.30221,317.57659 461.48921,306.47325 415.00357,295.44756 368.19056,284.34422 321.48668,273.26677 274.56455,262.13755 227.86068,251.0601 181.04767,239.95676 134.56204,228.93107 87.749045,217.82773 41.045159,206.75028 -5.8769626,195.62106 -29.338025,190.05645 l -23.461061,-5.56461 z"
     fill="#0b972d"
     id="path2"
     style="stroke-width:1.06287" />
  <path
     d="M -1.0916764,-1.665398 25.77738,7.97943 c 22.730088,7.97942 68.190256,23.93827 112.9059,41.58402 44.79551,17.76823 88.7666,37.10088 134.64395,51.29518 45.76823,14.16842 93.3921,22.97941 140.97314,31.15909 47.69017,8.20556 95.22842,15.75392 142.15837,26.47089 46.79159,10.78767 92.83657,24.81467 141.20705,30.38635 48.45038,5.69415 99.14645,2.81051 146.04715,13.62407 46.79159,10.78768 89.73725,35.05349 111.1808,47.28298 l 21.47282,12.13291 -47.0747,155.51406 -23.46107,-5.56461 C 882.36974,406.29976 835.44762,395.17054 788.74374,384.09308 741.93074,372.98975 695.44509,361.96406 648.63211,350.86072 601.92822,339.78326 555.00609,328.65405 508.30221,317.57659 461.48921,306.47325 415.00357,295.44756 368.19056,284.34422 321.48668,273.26677 274.56455,262.13755 227.86068,251.0601 181.04767,239.95676 134.56204,228.93107 87.749045,217.82773 41.045159,206.75028 -5.8769626,195.62106 -29.338025,190.05645 l -23.461061,-5.56461 z"
     fill="#207d2c"
     id="path4"
     style="stroke-width:1.06287"
     sodipodi:nodetypes="cccccccccccsssssssscc" />
  <path
     d="m -9.233063,40.56889 25.069204,0.25202 c 25.069203,0.25201 75.207612,0.75605 123.285729,7.29365 48.15799,6.66008 94.1758,19.23125 138.59121,38.25518 44.30628,18.99805 86.95953,44.22979 131.41202,62.74487 44.5616,18.54097 90.87181,30.14621 139.17598,36.32333 48.22431,6.05464 98.36271,6.55867 144.83268,18.40887 46.54987,11.97267 89.3514,35.16903 136.19364,46.17577 46.76236,10.88427 97.48554,9.45645 122.84713,8.74254 l 25.3616,-0.7139 -48.24426,159.37776 -23.46107,-5.56461 C 882.36974,406.29976 835.44762,395.17054 788.74374,384.09308 741.93074,372.98975 695.44509,361.96406 648.63211,350.86072 601.92822,339.78326 555.00609,328.65405 508.30221,317.57659 461.48921,306.47325 415.00357,295.44756 368.19056,284.34422 321.48668,273.26677 274.56455,262.13755 227.86068,251.0601 181.04767,239.95676 134.56204,228.93107 87.749045,217.82773 41.045159,206.75028 -5.8769626,195.62106 -29.338025,190.05645 l -23.461061,-5.56461 z"
     fill="#26642a"
     id="path6"
     style="stroke-width:1.06287" />
  <path
     d="m -27.945986,102.38814 23.5195399,5.37143 c 23.4903001,5.46801 70.5293751,16.21086 118.4905461,23.13484 48.07028,6.94985 97.01198,9.86177 144.55594,18.55029 47.43485,8.66264 93.36286,23.07601 141.58716,29.13065 48.33344,6.08052 98.79558,3.96962 145.17,16.52185 46.2653,12.52634 88.33375,39.68993 132.93243,57.72205 44.70779,18.058 91.89517,26.76547 139.08828,36.6131 47.08398,9.82176 94.12306,20.5646 117.61336,26.03262 l 23.51953,5.37143 -29.23893,96.59258 -23.46108,-5.56461 C 882.36974,406.29976 835.44762,395.17054 788.74374,384.09308 741.93074,372.98975 695.44509,361.96406 648.63211,350.86072 601.92822,339.78326 555.00609,328.65405 508.30221,317.57659 461.48921,306.47325 415.00357,295.44756 368.19056,284.34422 321.48668,273.26677 274.56455,262.13755 227.86068,251.0601 181.04767,239.95676 134.56204,228.93107 87.749045,217.82773 41.045159,206.75028 -5.8769626,195.62106 -29.338025,190.05645 l -23.461061,-5.56461 z"
     fill="#274c27"
     id="path8"
     style="stroke-width:1.06287" />
  <path
     d="m -25.022092,92.72888 22.9347608,7.30328 c 22.9055232,7.39987 68.7750422,22.00642 113.8707912,38.39647 45.20486,16.41593 89.5268,34.58947 135.37491,48.88036 45.73901,14.26501 92.83656,24.81467 141.14858,30.57954 48.42114,5.79074 97.94765,6.77081 144.32206,19.32303 46.26531,12.52635 89.2694,36.59897 135.2423,50.09124 46.08203,13.51815 95.02375,16.43007 144.02967,20.28896 48.8968,3.83301 97.7487,8.58712 122.20389,10.86758 l 24.42593,2.37706 -29.23893,96.59258 -23.46108,-5.56461 C 882.36974,406.29976 835.44762,395.17054 788.74374,384.09308 741.93074,372.98975 695.44509,361.96406 648.63211,350.86072 601.92822,339.78326 555.00609,328.65405 508.30221,317.57659 461.48921,306.47325 415.00357,295.44756 368.19056,284.34422 321.48668,273.26677 274.56455,262.13755 227.86068,251.0601 181.04767,239.95676 134.56204,228.93107 87.749045,217.82773 41.045159,206.75028 -5.8769626,195.62106 -29.338025,190.05645 l -23.461061,-5.56461 z"
     fill="#253524"
     id="path10"
     style="stroke-width:1.06287" />
  <path
     d="m -38.472006,137.16147 22.876285,7.49646 c 22.8762822,7.49646 68.628847,22.48939 114.894134,35.01573 46.374417,12.55223 93.152447,22.61199 140.608707,31.59029 47.3179,9.04901 95.23415,16.89408 141.93803,27.97154 46.81301,11.10334 92.30451,25.41317 137.86024,40.66999 45.44662,15.23094 90.78984,31.57616 138.57555,39.07969 47.89484,7.52941 98.06459,6.38443 145.14075,16.61844 46.93779,10.30471 90.64363,32.05912 112.49654,42.93632 l 21.85292,10.8772 15.04478,53.3857 -42.37419,14.67586 c -14.90051,5.16064 -60.06189,21.09582 -106.76577,10.01836 -46.813,-11.10334 -86.57125,4.64495 -133.38423,-6.45839 -46.70389,-11.07746 -76.27916,-3.23981 -122.98304,-14.31727 -46.813,-11.10334 -86.97581,13.77856 -133.78882,2.67522 C 366.816,438.31916 296.67118,456.30359 249.96731,445.22614 203.1543,434.1228 170.88168,482.95599 124.06869,471.85265 77.364802,460.7752 26.05853,524.87937 5.2307007,512.73079 L -58.390793,475.62128 Z"
     fill="#1f1f1f"
     id="path12"
     style="stroke-width:1.06287"
     sodipodi:nodetypes="csccscccsccsssssssscc" />
</svg>
